<?xml version="1.0" standalone="no"?>
<!DOCTYPE svg PUBLIC "-//W3C//DTD SVG 20010904//EN"
 "http://www.w3.org/TR/2001/REC-SVG-20010904/DTD/svg10.dtd">
<svg version="1.0" xmlns="http://www.w3.org/2000/svg"
 width="970.000000pt" height="972.000000pt" viewBox="0 0 970.000000 972.000000"
 preserveAspectRatio="xMidYMid meet">

<g transform="translate(0.000000,972.000000) scale(0.100000,-0.100000)"
fill="#000000" stroke="none">
<path d="M1530 8919 c-30 -4 -74 -11 -98 -15 -23 -3 -45 -10 -48 -15 -3 -5
-12 -9 -21 -9 -21 0 -183 -80 -183 -91 0 -5 -7 -9 -15 -9 -19 0 -225 -206
-225 -225 0 -8 -4 -15 -9 -15 -11 0 -91 -162 -91 -184 0 -9 -4 -16 -9 -16 -5
0 -11 -19 -14 -42 -4 -24 -11 -77 -17 -118 -11 -81 -4 -286 11 -296 5 -3 9
-23 9 -45 0 -21 5 -39 10 -39 6 0 10 -11 10 -24 0 -14 5 -28 10 -31 6 -3 10
-15 10 -26 0 -10 5 -19 10 -19 6 0 10 -9 10 -20 0 -11 5 -20 10 -20 6 0 10 -9
10 -20 0 -11 4 -20 8 -20 4 0 15 -12 24 -27 43 -74 179 -210 241 -242 15 -8
27 -18 27 -23 0 -4 9 -8 20 -8 11 0 20 -4 20 -10 0 -5 9 -10 20 -10 11 0 20
-4 20 -10 0 -5 9 -10 20 -10 11 0 20 -4 20 -10 0 -5 11 -10 24 -10 14 0 28 -4
31 -10 3 -5 17 -10 30 -10 13 0 26 -4 29 -9 12 -19 234 -30 341 -17 68 8 205
47 205 59 0 4 9 7 20 7 11 0 20 5 20 10 0 6 6 10 13 10 18 0 67 24 67 33 0 4
6 7 13 7 6 0 24 10 39 23 15 12 49 40 76 62 27 22 64 60 83 85 19 25 42 54 52
64 9 11 17 25 17 32 0 7 3 14 8 16 10 4 52 87 52 104 0 8 3 14 8 14 11 0 50
137 58 205 13 107 2 329 -17 341 -5 3 -9 16 -9 29 0 13 -4 27 -10 30 -5 3 -10
17 -10 31 0 13 -4 24 -10 24 -5 0 -10 9 -10 20 0 11 -4 20 -10 20 -5 0 -10 9
-10 20 0 11 -4 20 -10 20 -5 0 -10 9 -10 20 0 11 -4 20 -8 20 -5 0 -15 12 -23
27 -31 60 -181 210 -242 242 -15 8 -27 18 -27 23 0 4 -9 8 -20 8 -11 0 -20 5
-20 10 0 6 -9 10 -20 10 -11 0 -20 5 -20 10 0 6 -7 10 -15 10 -8 0 -25 5 -38
12 -49 25 -58 28 -90 28 -18 0 -37 4 -42 9 -14 14 -239 21 -305 10z m245 -249
c3 -5 24 -10 46 -10 21 0 39 -4 39 -10 0 -5 6 -10 13 -10 18 0 67 -24 67 -32
0 -5 9 -8 20 -8 11 0 20 -4 20 -10 0 -5 7 -10 15 -10 18 0 165 -146 165 -165
0 -7 3 -15 8 -17 11 -5 52 -84 52 -102 0 -9 5 -16 10 -16 6 0 10 -11 10 -24 0
-14 5 -28 10 -31 14 -9 13 -287 -1 -322 -6 -15 -16 -39 -21 -53 -36 -89 -73
-145 -144 -215 -38 -38 -79 -75 -90 -81 -40 -22 -100 -52 -124 -61 -14 -6 -38
-16 -53 -22 -35 -14 -313 -15 -322 -1 -3 6 -17 10 -31 10 -13 0 -24 5 -24 10
0 6 -7 10 -16 10 -18 0 -97 41 -102 53 -2 4 -10 7 -17 7 -19 0 -165 147 -165
165 0 8 -4 15 -10 15 -5 0 -10 9 -10 20 0 11 -3 20 -7 20 -9 0 -33 49 -33 67
0 7 -4 13 -10 13 -5 0 -10 17 -10 38 0 21 -5 43 -11 49 -19 19 1 315 22 329 5
3 9 14 9 25 0 10 5 19 10 19 6 0 10 9 10 20 0 11 5 20 10 20 6 0 10 5 10 11 0
15 59 98 95 134 36 36 119 95 134 95 6 0 11 5 11 10 0 6 9 10 20 10 11 0 20 5
20 10 0 6 9 10 19 10 11 0 23 5 26 10 3 6 21 10 38 10 18 0 39 5 47 10 20 13
237 13 245 0z"/>
<path d="M1590 8430 c-8 -5 -27 -10 -42 -10 -64 0 -174 -89 -227 -184 -31 -54
-44 -188 -27 -261 10 -41 47 -115 58 -115 4 0 8 -6 8 -13 0 -15 51 -67 66 -67
5 0 16 -9 24 -20 8 -11 22 -20 32 -20 10 0 18 -3 18 -8 0 -14 81 -32 150 -32
69 0 150 18 150 32 0 5 9 8 20 8 11 0 20 4 20 8 0 5 12 15 28 23 34 18 63 47
81 82 8 15 18 27 23 27 4 0 8 9 8 20 0 11 3 20 8 20 14 0 32 81 32 150 0 69
-18 150 -32 150 -5 0 -8 8 -8 18 0 10 -9 24 -20 32 -11 8 -20 20 -20 26 0 7
-15 24 -32 38 -18 15 -38 31 -45 36 -31 26 -87 50 -113 50 -16 0 -32 5 -35 10
-8 13 -105 13 -125 0z"/>
<path d="M3838 8923 c-100 -16 -112 -189 -15 -226 16 -6 17 -9 3 -22 -8 -8
-19 -15 -24 -15 -21 0 -46 -56 -46 -102 0 -43 4 -51 43 -88 41 -39 42 -40 19
-49 -54 -21 -78 -100 -50 -167 17 -41 47 -57 109 -56 42 0 57 5 75 24 31 33
48 64 48 89 0 30 -40 98 -62 105 -26 8 -22 27 12 52 17 13 30 29 30 37 0 23
10 18 52 -25 35 -36 45 -40 88 -40 42 0 53 5 84 36 32 32 36 42 36 86 0 45 -4
54 -37 84 -31 29 -44 34 -85 34 -43 0 -52 -4 -87 -40 -43 -44 -51 -48 -51 -24
0 17 -36 54 -52 54 -16 0 -8 20 21 47 66 65 67 114 5 179 -23 24 -70 35 -116
27z"/>
<path d="M5066 8923 c-41 -11 -86 -73 -86 -119 0 -33 41 -89 80 -109 33 -17
80 -20 80 -5 0 6 7 10 15 10 9 0 27 11 40 25 21 20 25 34 25 87 0 57 -3 65
-26 83 -41 31 -82 40 -128 28z"/>
<path d="M6053 8923 c-96 -20 -104 -190 -10 -226 16 -6 17 -9 3 -22 -8 -8 -19
-15 -24 -15 -21 0 -46 -56 -46 -102 0 -43 4 -51 43 -88 36 -35 40 -41 24 -47
-70 -27 -90 -121 -39 -187 28 -37 44 -42 115 -37 47 3 101 63 101 112 0 30
-47 109 -65 109 -22 0 -18 31 4 37 36 9 84 143 51 143 -5 0 -10 7 -10 16 0 18
-23 44 -40 44 -24 0 -22 31 4 51 50 39 68 98 44 141 -35 60 -90 85 -155 71z"/>
<path d="M6546 8923 c-26 -7 -66 -48 -66 -68 0 -8 -4 -15 -10 -15 -26 0 -6
-70 32 -113 33 -38 118 -64 118 -37 0 6 7 10 15 10 9 0 28 12 43 27 23 23 27
35 26 84 -1 47 -5 61 -26 82 -26 26 -93 41 -132 30z"/>
<path d="M7950 8923 c-30 -2 -59 -8 -64 -14 -6 -5 -25 -9 -43 -9 -18 0 -42 -4
-53 -10 -11 -5 -29 -14 -40 -20 -11 -5 -27 -10 -35 -10 -8 0 -15 -4 -15 -10 0
-5 -9 -10 -20 -10 -11 0 -20 -4 -20 -10 0 -5 -9 -10 -20 -10 -11 0 -20 -4 -20
-8 0 -5 -12 -15 -27 -23 -25 -13 -79 -58 -122 -100 -44 -44 -111 -120 -111
-127 0 -5 -8 -17 -17 -28 -25 -28 -43 -61 -43 -79 0 -8 -4 -15 -10 -15 -5 0
-10 -9 -10 -20 0 -11 -4 -20 -10 -20 -5 0 -10 -11 -10 -24 0 -14 -4 -28 -10
-31 -5 -3 -10 -16 -10 -29 0 -12 -4 -26 -9 -31 -19 -21 -31 -238 -18 -340 9
-69 48 -205 60 -205 4 0 7 -6 7 -14 0 -17 42 -100 53 -104 4 -2 7 -9 7 -15 0
-7 10 -24 23 -39 12 -15 40 -49 62 -76 22 -27 60 -64 85 -83 25 -19 54 -42 64
-51 11 -10 26 -18 33 -18 7 0 13 -3 13 -7 0 -9 49 -33 67 -33 7 0 13 -4 13
-10 0 -5 9 -10 19 -10 11 0 21 -4 23 -8 5 -14 110 -45 183 -54 121 -16 355 -7
355 13 0 5 11 9 25 9 14 0 34 5 45 10 11 6 29 15 40 20 11 6 27 10 35 10 8 0
15 5 15 10 0 6 9 10 20 10 11 0 20 5 20 10 0 6 9 10 20 10 11 0 20 4 20 8 0 5
12 15 27 23 60 31 210 181 242 242 8 15 18 27 23 27 4 0 8 9 8 20 0 11 5 20
10 20 6 0 10 9 10 20 0 11 5 20 10 20 6 0 10 9 10 19 0 11 5 23 10 26 6 3 10
17 10 31 0 13 5 24 10 24 6 0 10 18 10 39 0 22 4 42 9 45 15 10 22 215 11 296
-6 41 -13 94 -17 118 -3 23 -9 42 -14 42 -5 0 -9 7 -9 16 0 22 -80 184 -91
184 -5 0 -9 7 -9 15 0 19 -206 225 -225 225 -8 0 -15 4 -15 9 0 11 -162 91
-184 91 -9 0 -16 5 -16 10 0 6 -16 10 -36 10 -19 0 -43 4 -53 9 -21 12 -220
21 -301 14z m278 -258 c23 -4 45 -11 48 -16 3 -5 14 -9 25 -9 10 0 19 -4 19
-10 0 -5 9 -10 20 -10 11 0 20 -4 20 -10 0 -5 5 -10 11 -10 15 0 98 -59 134
-95 36 -36 95 -119 95 -134 0 -6 5 -11 10 -11 6 0 10 -9 10 -20 0 -11 5 -20
10 -20 6 0 10 -9 10 -19 0 -11 4 -22 9 -25 21 -14 41 -310 22 -329 -6 -6 -11
-28 -11 -49 0 -21 -4 -38 -10 -38 -5 0 -10 -6 -10 -13 0 -18 -24 -67 -32 -67
-5 0 -8 -9 -8 -20 0 -11 -4 -20 -10 -20 -5 0 -10 -7 -10 -15 0 -18 -146 -165
-165 -165 -7 0 -15 -3 -17 -7 -5 -12 -84 -53 -102 -53 -9 0 -16 -4 -16 -10 0
-5 -11 -10 -24 -10 -14 0 -28 -4 -31 -10 -9 -14 -287 -13 -322 1 -15 6 -39 16
-53 21 -165 66 -292 193 -358 358 -5 14 -15 38 -21 53 -14 35 -15 313 -1 322
6 3 10 17 10 31 0 13 5 24 10 24 6 0 10 7 10 16 0 18 41 97 53 102 4 2 7 10 7
17 0 19 147 165 165 165 8 0 15 5 15 10 0 6 9 10 20 10 11 0 20 3 20 8 0 8 49
32 67 32 7 0 13 5 13 10 0 6 18 10 39 10 22 0 43 5 46 11 7 11 203 7 283 -6z"/>
<path d="M8000 8430 c-8 -5 -25 -10 -37 -10 -20 0 -91 -34 -103 -49 -3 -3 -17
-12 -31 -20 -15 -7 -33 -25 -40 -40 -8 -14 -22 -33 -31 -42 -10 -9 -18 -24
-18 -33 0 -9 -3 -16 -8 -16 -14 0 -32 -81 -32 -150 0 -69 18 -150 32 -150 5 0
8 -9 8 -20 0 -11 4 -20 8 -20 5 0 15 -12 23 -27 8 -16 23 -37 34 -48 11 -11
32 -26 48 -34 15 -8 27 -18 27 -23 0 -4 9 -8 20 -8 11 0 20 -3 20 -8 0 -25
230 -46 245 -22 3 6 17 10 31 10 13 0 24 5 24 10 0 6 7 10 16 10 9 0 24 8 33
18 9 9 28 23 43 31 15 8 33 27 40 43 7 15 16 28 19 28 11 0 47 85 59 141 7 31
10 74 6 95 -4 21 -9 55 -13 74 -18 107 -149 235 -258 254 -77 14 -150 16 -165
6z"/>
<path d="M2825 8668 c-30 -18 -45 -35 -45 -52 0 -9 -4 -16 -10 -16 -5 0 -10
-18 -10 -40 0 -22 3 -40 8 -40 4 0 13 -13 20 -29 7 -16 22 -31 32 -34 27 -7
25 -30 -2 -42 -13 -6 -27 -20 -33 -32 -5 -13 -13 -23 -17 -23 -13 0 -9 -68 5
-92 6 -13 25 -35 41 -50 l28 -28 -29 -27 c-67 -63 -71 -113 -12 -175 l40 -42
-30 -27 c-17 -15 -31 -34 -31 -43 0 -9 -4 -16 -10 -16 -5 0 -10 -18 -10 -40 0
-22 5 -40 10 -40 6 0 10 -7 10 -16 0 -18 17 -37 43 -47 21 -8 23 -37 2 -37
-20 0 -65 -73 -65 -105 0 -31 16 -61 54 -97 l28 -28 -29 -27 c-60 -56 -68
-106 -28 -159 14 -18 41 -41 60 -50 29 -14 39 -14 72 -2 57 20 83 54 83 110 0
57 -15 92 -46 109 -30 16 -30 22 -1 38 12 7 28 25 36 42 13 30 31 39 31 15 0
-7 12 -25 26 -40 23 -22 35 -26 86 -26 49 0 63 4 83 25 14 13 25 31 25 40 0 8
5 15 10 15 19 0 10 53 -15 97 -14 23 -32 43 -40 43 -22 0 -18 31 4 37 10 2 25
17 32 31 7 15 15 29 16 31 2 2 21 -14 44 -37 36 -37 46 -42 87 -42 73 0 122
51 122 127 0 30 -8 47 -34 76 -31 34 -39 37 -86 37 -47 0 -55 -3 -90 -40 -41
-43 -50 -48 -50 -26 0 7 -14 27 -31 44 l-31 30 29 29 c15 15 34 38 41 50 14
27 16 73 2 73 -5 0 -10 7 -10 15 0 18 -43 65 -60 65 -5 0 -10 5 -10 10 0 6 5
10 10 10 17 0 60 47 60 65 0 8 5 15 10 15 17 0 11 46 -12 90 -15 27 -34 47
-57 56 -58 24 -89 16 -143 -40 l-28 -28 -27 29 c-16 16 -36 32 -46 36 -16 6
-13 12 22 45 39 37 41 42 41 95 0 32 -4 57 -9 57 -5 0 -11 9 -14 20 -3 11 -12
20 -21 20 -9 0 -16 5 -16 10 0 14 -90 12 -115 -2z m203 -417 c7 -17 26 -36 43
-43 32 -14 38 -28 13 -28 -19 0 -64 -48 -64 -67 0 -20 -18 -15 -25 6 -9 28
-40 61 -59 61 -25 0 -19 16 12 29 15 6 33 25 41 41 16 37 23 38 39 1z m-8
-233 c0 -7 16 -26 35 -43 l35 -29 -29 -26 c-15 -14 -32 -34 -38 -45 -10 -17
-12 -17 -27 -3 -9 9 -16 21 -16 26 0 5 -11 17 -25 26 -26 17 -33 36 -14 36 12
0 59 50 59 63 0 13 20 8 20 -5z m25 -274 c19 -20 35 -40 35 -45 0 -5 -16 -25
-35 -44 l-35 -35 -40 38 -39 39 37 41 c20 22 38 41 40 41 1 1 18 -15 37 -35z"/>
<path d="M3293 8645 c-28 -29 -33 -42 -33 -84 0 -43 4 -53 36 -85 31 -31 42
-36 84 -36 42 0 53 5 84 36 31 31 36 42 36 84 0 42 -5 53 -36 84 -32 32 -41
36 -87 35 -46 0 -56 -5 -84 -34z"/>
<path d="M4776 8647 c-32 -30 -36 -39 -36 -84 0 -45 4 -55 36 -87 31 -31 42
-36 84 -36 42 0 53 5 84 36 32 32 36 42 36 87 0 45 -4 54 -36 84 -31 28 -44
33 -84 33 -40 0 -53 -5 -84 -33z"/>
<path d="M5300 8670 c0 -5 -6 -10 -14 -10 -24 0 -50 -52 -50 -102 0 -40 5 -51
36 -82 29 -29 44 -36 75 -36 50 0 89 18 105 50 7 14 14 27 15 29 2 2 21 -14
44 -37 36 -38 45 -42 89 -42 42 0 53 5 84 36 31 31 36 42 36 85 0 42 -5 53
-35 84 -31 30 -42 35 -84 35 -43 0 -53 -5 -90 -40 -46 -44 -51 -47 -51 -24 0
17 -14 32 -48 52 -26 14 -112 16 -112 2z"/>
<path d="M4310 8422 c-20 -10 -42 -32 -52 -52 -19 -39 -23 -90 -8 -90 6 0 10
-7 10 -15 0 -9 12 -27 26 -42 20 -20 36 -25 74 -26 60 -1 95 16 111 54 15 36
21 36 37 0 7 -17 26 -36 43 -43 32 -14 38 -28 13 -28 -9 0 -27 -12 -40 -27
-35 -41 -34 -133 1 -168 13 -14 29 -25 35 -25 17 0 11 -12 -25 -47 -32 -31
-35 -39 -35 -92 0 -53 3 -60 35 -90 l36 -32 -41 -40 -41 -40 -27 29 c-15 16
-37 34 -49 40 -24 13 -93 16 -93 4 0 -4 -10 -12 -22 -17 -39 -17 -80 -135 -48
-135 6 0 10 -7 10 -16 0 -9 14 -29 31 -45 l31 -29 -31 -29 c-17 -16 -31 -36
-31 -45 0 -9 -4 -16 -10 -16 -33 0 10 -109 52 -134 23 -14 27 -21 17 -32 -6
-8 -16 -14 -21 -14 -15 0 -38 -27 -38 -44 0 -24 -8 -20 -50 24 -35 37 -43 40
-90 40 -47 0 -55 -3 -86 -37 -58 -63 -42 -151 33 -191 49 -27 110 -11 152 39
27 32 41 37 41 13 0 -20 24 -44 44 -44 9 0 16 -4 16 -10 0 -5 20 -10 43 -10
35 0 51 7 82 33 35 31 39 38 39 83 0 48 -25 104 -46 104 -10 0 -38 25 -38 34
0 3 7 6 15 6 27 0 64 47 71 88 8 48 -16 103 -51 122 -31 17 -31 23 0 40 14 7
30 26 37 42 14 30 28 37 28 14 0 -7 12 -25 26 -40 23 -22 35 -26 86 -26 49 0
63 4 83 25 14 13 25 29 25 35 0 19 17 10 59 -31 44 -43 44 -44 -1 -70 -10 -5
-18 -16 -18 -24 0 -8 -4 -15 -10 -15 -14 0 -13 -83 1 -113 6 -14 23 -31 38
-38 14 -7 28 -14 30 -16 2 -1 -15 -20 -38 -42 -37 -36 -41 -44 -41 -88 0 -50
25 -92 63 -106 22 -8 23 -37 1 -37 -9 0 -28 -14 -43 -31 l-27 -30 -42 40 c-59
57 -105 55 -169 -6 -19 -18 -23 -32 -23 -80 1 -85 30 -113 117 -113 36 0 55 6
76 24 15 13 27 28 27 35 0 23 32 7 43 -21 3 -10 13 -18 22 -18 8 0 15 -4 15
-10 0 -6 27 -10 60 -10 33 0 60 4 60 10 0 6 7 10 15 10 9 0 19 8 22 18 12 32
26 31 61 -4 19 -19 38 -34 43 -34 5 0 9 -4 9 -10 0 -5 -5 -10 -10 -10 -14 0
-54 -40 -69 -68 -22 -41 -13 -79 29 -123 45 -47 48 -57 23 -66 -36 -14 -63
-60 -63 -108 0 -19 5 -35 10 -35 6 0 10 -7 10 -16 0 -32 55 -64 111 -64 36 0
48 6 81 39 l38 39 38 -39 c33 -33 45 -39 81 -39 56 0 111 32 111 64 0 24 9 20
52 -24 35 -36 45 -40 88 -40 42 0 53 5 84 36 31 31 36 42 36 84 0 42 -5 53
-36 84 -31 31 -42 36 -84 36 -42 0 -52 -5 -89 -40 -46 -44 -51 -47 -51 -24 0
17 -23 44 -38 44 -5 0 -15 6 -21 14 -9 11 -5 18 24 36 20 12 35 30 35 40 0 10
5 22 10 25 6 3 10 19 10 36 0 16 -4 29 -10 29 -5 0 -10 7 -10 15 0 9 -12 28
-26 42 -21 21 -37 27 -74 27 -58 1 -94 -17 -114 -58 -13 -28 -16 -29 -22 -11
-9 24 -54 65 -71 65 -22 0 -14 16 15 31 42 22 51 40 52 103 0 54 -2 60 -36 91
-34 32 -38 55 -10 55 24 0 46 47 46 100 0 53 -22 100 -46 100 -8 0 -14 5 -14
10 0 6 -21 10 -46 10 -61 0 -101 -22 -117 -63 -6 -15 -13 -12 -52 27 -49 50
-53 56 -29 56 17 0 32 14 52 48 14 26 16 112 2 112 -5 0 -10 7 -10 15 0 8 -8
19 -17 24 -46 26 -46 27 -4 68 35 34 41 46 41 82 0 42 -12 76 -34 96 -59 53
-130 46 -185 -17 -29 -34 -35 -35 -49 -4 -6 13 -20 27 -31 31 -26 8 -27 33 -3
42 25 10 42 29 42 47 0 9 5 16 10 16 6 0 10 18 10 40 0 22 -4 40 -10 40 -5 0
-10 7 -10 16 0 9 -14 28 -31 43 l-30 27 40 42 c60 63 55 109 -18 179 -19 18
-29 33 -22 33 14 0 50 36 69 68 38 67 -30 170 -114 172 -30 0 -73 -24 -100
-56 l-24 -27 -28 29 c-55 57 -91 66 -152 36z m690 -1398 c0 -20 24 -44 44 -44
26 0 18 -26 -21 -65 l-37 -37 -27 31 c-15 17 -34 31 -43 31 -22 0 -21 31 2 37
9 2 28 17 42 33 28 33 40 37 40 14z m258 -512 c15 -16 35 -31 45 -35 15 -5 10
-14 -30 -53 -26 -25 -49 -41 -51 -35 -5 14 -21 30 -55 56 -31 23 -34 35 -9 35
9 0 28 14 42 30 14 16 27 30 28 30 2 0 16 -13 30 -28z"/>
<path d="M6786 8427 c-51 -31 -66 -55 -66 -105 0 -61 17 -99 53 -115 30 -13
36 -27 11 -27 -59 0 -88 -137 -40 -192 13 -16 28 -28 35 -28 19 0 12 -19 -14
-36 -14 -9 -25 -23 -25 -30 0 -8 -4 -14 -10 -14 -5 0 -10 -25 -10 -56 0 -50 3
-59 34 -90 28 -28 42 -34 76 -34 58 0 110 30 110 64 0 9 5 16 10 16 6 0 10 18
10 40 0 22 -4 40 -10 40 -5 0 -10 7 -10 16 0 9 -14 28 -31 43 l-30 27 40 42
c60 63 56 112 -18 180 -19 17 -29 32 -22 32 29 0 81 75 80 117 -2 82 -109 150
-173 110z"/>
<path d="M3596 8182 c-44 -6 -96 -68 -96 -114 0 -53 75 -128 128 -128 50 0
109 53 113 101 7 111 -38 155 -145 141z"/>
<path d="M4070 8177 c-19 -6 -39 -22 -45 -34 -5 -13 -13 -23 -17 -23 -5 0 -8
-22 -8 -50 0 -27 5 -50 10 -50 6 0 10 -7 10 -16 0 -20 24 -44 44 -44 23 0 21
-4 -24 -50 -33 -34 -40 -48 -40 -81 0 -78 48 -129 122 -129 40 0 51 5 82 36
32 32 36 42 36 86 0 45 -4 53 -41 89 -23 22 -40 41 -38 42 2 2 15 8 29 15 14
7 31 25 38 39 14 32 16 113 2 113 -5 0 -10 6 -10 14 0 36 -93 63 -150 43z"/>
<path d="M5816 8182 c-44 -6 -96 -68 -96 -114 0 -53 75 -128 128 -128 50 0
110 54 113 101 8 110 -39 155 -145 141z"/>
<path d="M6301 8180 c-19 -5 -38 -15 -43 -24 -5 -8 -15 -22 -23 -30 -15 -15
-22 -106 -7 -106 4 0 13 -13 20 -30 8 -18 21 -30 33 -30 10 0 19 -2 19 -5 0
-7 -86 -95 -93 -95 -4 0 -7 7 -7 16 0 9 -12 27 -27 40 -22 18 -40 24 -79 24
-44 0 -54 -4 -84 -35 -29 -30 -34 -42 -34 -84 0 -43 5 -54 37 -86 l38 -38 -34
-31 c-39 -36 -50 -78 -36 -130 16 -57 43 -76 111 -76 49 0 63 4 83 25 14 13
25 31 25 40 0 8 5 15 10 15 6 0 10 14 10 30 0 34 -46 110 -66 110 -21 0 -17
31 5 37 10 2 25 17 32 31 7 15 15 29 16 31 2 2 21 -14 44 -37 37 -38 45 -42
91 -42 45 0 54 4 84 37 29 31 34 44 34 86 0 44 -4 52 -40 87 -44 42 -48 50
-24 50 17 0 32 14 52 48 14 26 16 112 2 112 -5 0 -10 6 -10 13 0 37 -75 62
-139 47z"/>
<path d="M5513 7905 c-28 -29 -33 -42 -33 -84 0 -43 4 -53 36 -85 31 -31 42
-36 83 -36 72 0 121 51 121 128 0 31 -7 48 -33 76 -31 33 -38 36 -88 35 -48 0
-58 -4 -86 -34z"/>
<path d="M3580 7690 c0 -5 -6 -10 -14 -10 -20 0 -66 -76 -66 -110 0 -16 5 -30
10 -30 6 0 10 -7 10 -15 0 -9 11 -27 25 -40 20 -21 34 -25 83 -25 62 0 94 18
107 60 9 28 20 25 34 -9 7 -15 23 -34 37 -41 30 -17 30 -23 0 -39 -34 -19 -50
-54 -49 -111 1 -58 26 -88 88 -109 37 -11 45 -11 75 6 41 23 80 76 80 110 0
29 -17 60 -54 95 l-28 28 31 29 c17 16 31 36 31 45 0 9 5 16 10 16 6 0 10 16
10 34 0 50 -72 126 -119 126 -18 0 -42 -5 -53 -11 -28 -15 -68 -55 -68 -69 0
-5 -4 -10 -10 -10 -5 0 -10 5 -10 11 0 6 -17 27 -37 45 -30 28 -45 34 -80 34
-24 0 -43 -4 -43 -10z"/>
<path d="M3345 7445 c-50 -22 -85 -69 -85 -115 0 -55 32 -110 64 -110 9 0 16
-2 16 -5 0 -7 -91 -98 -94 -93 -1 1 -8 15 -15 29 -17 34 -50 49 -106 49 -106
0 -151 -135 -69 -209 27 -25 42 -31 79 -31 25 0 45 5 45 10 0 6 9 10 19 10 12
0 25 12 33 30 7 17 16 30 19 30 3 0 17 -13 30 -29 31 -36 60 -51 99 -51 39 0
68 15 99 51 13 16 27 29 30 29 3 0 12 -13 19 -30 8 -18 21 -30 33 -30 10 0 19
-4 19 -10 0 -5 20 -10 44 -10 36 0 50 6 82 35 34 31 38 40 38 84 0 43 -5 54
-36 85 -30 30 -43 36 -78 36 -58 0 -110 -30 -110 -64 0 -25 -10 -19 -57 29
-48 51 -50 55 -25 55 26 0 62 63 62 110 0 45 -32 90 -83 115 -35 17 -33 17
-72 0z"/>
<path d="M5322 7446 c-68 -24 -102 -86 -86 -152 8 -33 46 -74 68 -74 8 0 18
-4 21 -10 14 -22 87 1 116 37 36 46 54 113 29 113 -5 0 -10 7 -10 15 0 20 -44
65 -64 65 -8 0 -18 5 -21 10 -7 12 -11 12 -53 -4z"/>
<path d="M5815 7446 c-49 -18 -95 -75 -95 -116 0 -26 22 -70 46 -91 31 -28 92
-45 106 -31 7 7 18 12 25 12 8 0 25 11 38 24 22 22 30 57 26 116 -1 29 -38 74
-66 82 -11 3 -27 8 -35 11 -8 3 -28 0 -45 -7z"/>
<path d="M6312 7446 c-18 -6 -46 -26 -62 -43 -24 -26 -30 -41 -30 -77 0 -26 3
-46 8 -46 4 0 13 -13 20 -30 8 -18 21 -30 33 -30 26 0 25 -4 -21 -51 -33 -34
-40 -48 -40 -81 0 -76 49 -128 120 -128 39 0 68 15 99 51 13 16 27 29 30 29 3
0 12 -13 19 -30 8 -18 21 -30 33 -30 27 0 24 -28 -6 -52 -14 -11 -32 -33 -40
-48 -17 -33 -20 -80 -5 -80 6 0 10 -7 10 -15 0 -18 43 -65 60 -65 5 0 10 -4
10 -10 0 -5 -5 -10 -10 -10 -14 0 -54 -40 -63 -63 -6 -16 -12 -13 -46 24 -36
40 -42 43 -91 43 -46 0 -55 -4 -86 -36 -37 -40 -45 -90 -22 -140 22 -46 125
-87 143 -58 3 6 13 10 21 10 16 0 33 15 49 44 13 23 15 23 63 -24 30 -28 37
-41 29 -49 -6 -6 -16 -11 -22 -11 -13 0 -55 -74 -55 -96 0 -26 42 -104 56
-104 30 0 23 -27 -15 -67 -28 -31 -42 -38 -50 -30 -6 6 -11 15 -11 20 0 14
-27 37 -44 37 -9 0 -16 5 -16 10 0 6 -18 10 -40 10 -22 0 -40 -4 -40 -10 0 -5
-7 -10 -16 -10 -32 0 -64 -55 -64 -111 0 -32 7 -48 33 -76 30 -31 40 -35 87
-36 49 -1 55 2 90 41 42 46 50 50 50 27 0 -9 11 -27 25 -41 21 -21 36 -26 78
-26 86 -1 123 36 121 122 0 37 -6 53 -27 74 -14 14 -31 26 -37 26 -19 0 -10
17 31 58 l40 42 38 -40 c32 -34 44 -40 80 -40 48 0 111 35 111 63 0 9 5 17 10
17 6 0 10 18 10 40 0 22 -4 40 -10 40 -5 0 -10 7 -10 16 0 18 -23 44 -40 44
-26 0 -18 29 20 68 56 60 54 109 -8 171 -20 20 -35 25 -73 25 -59 0 -94 -18
-110 -55 -12 -31 -29 -39 -29 -14 0 20 -45 65 -65 65 -25 0 -17 17 14 29 38
16 56 53 55 112 0 42 -5 52 -37 82 l-37 34 40 41 40 41 41 -40 c33 -32 47 -39
80 -39 54 0 109 32 109 64 0 9 5 16 10 16 6 0 10 18 10 40 0 22 -4 40 -10 40
-5 0 -10 7 -10 16 0 9 -14 28 -31 43 l-30 27 40 42 c30 31 41 51 41 73 0 54
-40 105 -99 126 -28 10 -39 9 -75 -7 -48 -23 -66 -56 -66 -119 0 -50 32 -101
64 -101 9 0 16 -3 16 -6 0 -9 -24 -30 -42 -37 -10 -3 -18 -11 -18 -17 0 -6 -7
-19 -16 -27 -17 -17 -19 -16 -45 30 -5 9 -16 17 -24 17 -8 0 -15 5 -15 10 0
14 -83 13 -113 -1 -14 -6 -31 -23 -38 -38 -7 -14 -14 -28 -15 -29 -3 -5 -94
86 -94 93 0 3 7 5 16 5 17 0 32 14 52 48 13 24 17 112 4 112 -5 0 -14 10 -19
23 -16 34 -80 57 -121 43z m408 -906 c0 -17 47 -60 65 -60 22 0 20 -5 -29 -54
l-45 -44 -45 44 c-50 49 -53 54 -31 54 18 0 65 43 65 60 0 5 5 10 10 10 6 0
10 -5 10 -10z"/>
<path d="M5513 7165 c-28 -29 -33 -42 -33 -82 0 -50 25 -92 63 -106 21 -8 23
-37 1 -37 -34 0 -64 -52 -64 -110 0 -34 6 -48 34 -76 31 -31 40 -34 90 -34 31
0 56 5 56 10 0 6 7 10 16 10 9 0 18 9 21 20 3 11 9 20 14 20 14 0 11 87 -3
112 -20 34 -35 48 -52 48 -22 0 -20 29 2 37 36 14 62 56 62 104 0 37 -6 51
-34 82 -31 34 -38 37 -87 36 -48 0 -58 -4 -86 -34z"/>
<path d="M1345 6941 c-52 -30 -79 -107 -52 -153 17 -30 54 -68 67 -68 5 0 10
-4 10 -10 0 -5 -5 -10 -10 -10 -14 0 -54 -40 -63 -63 -6 -16 -12 -12 -47 24
-37 39 -45 43 -88 43 -49 0 -102 -26 -102 -49 0 -7 -7 -16 -16 -19 -21 -8 -24
-8 -24 4 0 18 -44 56 -74 64 -40 10 -89 -2 -121 -30 -25 -21 -28 -31 -29 -82
-1 -50 3 -62 26 -85 15 -15 34 -27 43 -27 8 0 15 -4 15 -10 0 -14 46 -12 73 3
12 6 35 25 50 40 27 27 57 30 57 7 0 -16 26 -40 44 -40 8 0 18 -4 21 -10 10
-16 41 -12 90 11 29 14 45 28 45 39 0 28 29 33 39 7 5 -12 21 -29 35 -36 30
-16 34 -39 9 -48 -26 -10 -43 -29 -43 -47 0 -9 -4 -16 -10 -16 -5 0 -10 -15
-10 -34 0 -19 5 -38 10 -41 6 -3 10 -13 10 -21 0 -32 55 -64 111 -64 36 0 48
6 80 40 l38 40 39 -40 c34 -35 44 -40 85 -40 26 0 47 3 47 8 0 4 14 13 30 20
18 8 30 21 30 33 0 26 4 25 51 -21 34 -33 48 -40 81 -40 47 0 75 13 107 51 27
32 41 37 41 13 0 -18 17 -37 43 -47 26 -10 21 -31 -13 -50 -16 -10 -30 -25
-30 -33 0 -8 -4 -14 -10 -14 -14 0 -13 -66 1 -92 15 -28 55 -68 69 -68 5 0 10
-4 10 -10 0 -5 -5 -10 -10 -10 -14 0 -54 -40 -69 -68 -6 -11 -11 -35 -11 -53
0 -47 76 -119 126 -119 18 0 34 5 34 10 0 6 7 10 16 10 9 0 29 14 45 31 l29
31 28 -28 c34 -36 66 -54 92 -54 30 0 75 25 98 55 19 24 42 33 42 17 0 -16 37
-52 54 -52 9 0 16 -4 16 -10 0 -5 15 -10 34 -10 19 0 38 5 41 10 3 6 13 10 21
10 20 0 44 24 44 44 0 26 26 18 64 -20 34 -34 41 -64 16 -64 -17 0 -40 -26
-40 -44 0 -9 -4 -16 -10 -16 -5 0 -10 -18 -10 -40 0 -22 5 -40 10 -40 6 0 10
-7 10 -16 0 -34 52 -64 110 -64 34 0 48 6 76 34 31 31 34 40 34 90 0 31 -4 56
-10 56 -5 0 -10 7 -10 15 0 9 -8 19 -17 22 -28 10 -45 43 -23 43 14 0 60 46
60 60 0 5 5 10 10 10 6 0 10 -5 10 -10 0 -13 38 -50 68 -67 53 -31 115 -2 160
75 14 26 16 72 2 72 -5 0 -10 7 -10 15 0 18 -43 65 -60 65 -5 0 -10 5 -10 10
0 6 5 10 10 10 17 0 60 47 60 65 0 23 8 19 50 -27 35 -39 41 -42 90 -41 47 1
57 5 87 36 26 28 33 44 33 76 0 56 -32 111 -64 111 -24 0 -20 9 24 52 36 35
40 45 40 88 0 42 -5 53 -36 84 -31 31 -42 36 -84 36 -42 0 -52 -5 -90 -41 -23
-22 -43 -39 -44 -37 -1 2 -8 15 -16 31 -7 15 -20 27 -27 27 -26 0 -26 30 0 50
43 34 78 130 47 130 -5 0 -10 7 -10 15 0 9 -12 28 -27 43 -23 23 -35 27 -84
26 -47 -1 -61 -5 -83 -27 -14 -14 -26 -33 -26 -42 0 -25 -17 -17 -30 15 -7 16
-25 35 -41 42 -36 16 -36 23 -1 39 36 16 52 50 52 111 0 38 -5 54 -23 71 -64
61 -110 63 -168 7 -44 -42 -69 -51 -69 -24 0 20 -24 44 -44 44 -9 0 -16 5 -16
10 0 6 -18 10 -40 10 -22 0 -40 -4 -40 -10 0 -5 -7 -10 -16 -10 -9 0 -28 -14
-43 -31 l-27 -30 -42 40 c-62 59 -112 55 -174 -12 l-28 -29 -28 28 c-37 39
-66 54 -99 53 -36 -1 -85 -29 -98 -57 -5 -12 -13 -22 -17 -22 -12 0 -9 -69 4
-93 6 -12 24 -34 40 -49 l29 -27 -41 -42 c-34 -36 -40 -48 -40 -85 0 -24 5
-44 10 -44 6 0 10 -6 10 -14 0 -8 14 -23 30 -33 34 -19 39 -40 13 -50 -23 -9
-37 -23 -46 -46 -6 -15 -12 -12 -48 23 -37 36 -47 40 -91 40 -45 0 -53 -4 -88
-40 -42 -44 -50 -48 -50 -24 0 17 -23 44 -38 44 -5 0 -15 6 -21 14 -8 10 -4
18 20 37 54 41 72 97 47 141 -35 60 -81 84 -142 73 -39 -8 -86 -45 -86 -69 0
-25 -14 -19 -28 13 -7 17 -26 36 -43 43 -36 16 -36 23 0 39 39 18 55 49 54
109 -1 38 -6 54 -25 72 -54 52 -99 60 -153 29z m953 -186 c28 -41 132 -48 175
-11 15 13 27 31 27 40 0 9 3 16 6 16 9 0 30 -24 37 -42 3 -10 13 -18 22 -18 8
0 15 -4 15 -10 0 -5 26 -10 57 -10 52 0 59 3 90 37 l34 36 33 -36 c19 -21 39
-37 45 -37 6 0 11 -4 11 -10 0 -5 -5 -10 -10 -10 -14 0 -54 -40 -69 -68 -27
-51 5 -124 70 -156 36 -18 79 -21 79 -6 0 6 7 10 16 10 16 0 64 47 64 63 0 4
5 7 10 7 6 0 10 -5 10 -10 0 -14 40 -54 63 -63 16 -6 13 -12 -24 -46 -40 -36
-43 -42 -43 -91 0 -47 4 -55 37 -86 37 -35 46 -54 27 -54 -6 0 -23 -12 -37
-26 -49 -50 -32 -159 29 -186 35 -16 35 -20 -1 -36 -17 -7 -36 -26 -43 -43
-16 -36 -23 -36 -37 -1 -16 39 -47 55 -108 54 -48 0 -57 -4 -86 -35 -32 -34
-57 -39 -57 -11 0 8 -8 18 -17 21 -44 17 -45 30 -3 73 35 35 40 47 40 85 0 25
-4 45 -10 45 -5 0 -10 7 -10 16 0 20 -24 44 -44 44 -8 0 -18 5 -21 10 -3 6
-22 10 -41 10 -19 0 -34 -4 -34 -10 0 -5 -7 -10 -16 -10 -34 0 -64 -52 -64
-111 0 -36 6 -47 41 -82 44 -41 44 -41 -3 -68 -10 -5 -18 -14 -18 -20 0 -11
-25 -39 -34 -39 -3 0 -6 7 -6 15 0 9 -11 27 -24 40 -22 22 -57 30 -116 26 -27
-1 -80 -41 -80 -60 0 -19 -16 -12 -30 14 -7 14 -26 30 -42 37 -30 14 -37 28
-14 28 7 0 25 12 40 26 22 23 26 35 26 86 0 61 -19 94 -63 111 -15 5 -10 13
28 51 l46 44 38 -39 c33 -34 44 -39 84 -39 26 0 47 3 47 8 0 4 12 13 28 19 38
17 58 81 40 131 -20 58 -55 82 -119 82 -36 0 -48 -6 -80 -39 l-38 -39 -46 44
c-49 49 -52 54 -30 54 9 0 27 11 40 25 21 20 25 34 25 83 0 51 -4 63 -26 86
-15 14 -33 26 -40 26 -24 0 -15 18 16 32 17 7 36 25 43 41 13 29 13 29 45 -18z
m-758 -215 c0 -14 40 -54 63 -63 16 -6 16 -9 5 -19 -8 -7 -22 -18 -33 -24 -15
-8 -34 -32 -41 -52 -1 -4 -94 88 -94 93 0 3 7 5 15 5 18 0 65 43 65 60 0 5 5
10 10 10 6 0 10 -5 10 -10z m1755 -283 c48 -47 54 -57 29 -57 -18 0 -44 -23
-44 -40 0 -26 -30 -18 -64 16 -36 36 -41 64 -12 64 8 0 20 14 28 30 7 17 14
30 15 30 2 0 23 -19 48 -43z"/>
<path d="M7040 6950 c0 -5 -7 -10 -16 -10 -32 0 -64 -55 -64 -109 0 -30 8 -47
33 -75 31 -33 38 -36 90 -36 31 0 57 5 57 10 0 6 7 10 16 10 9 0 18 9 21 20 3
11 9 20 14 20 5 0 9 24 9 53 0 40 -5 58 -24 80 -13 15 -31 27 -40 27 -9 0 -16
5 -16 10 0 6 -18 10 -40 10 -22 0 -40 -4 -40 -10z"/>
<path d="M7526 6947 c-54 -33 -66 -54 -66 -114 1 -62 10 -80 53 -102 34 -18
34 -23 -1 -39 -16 -7 -35 -23 -42 -37 -14 -26 -30 -33 -30 -14 0 19 -51 57
-86 64 -68 12 -118 -18 -142 -88 -12 -33 -12 -43 3 -73 9 -19 29 -44 45 -56
23 -16 27 -25 19 -35 -6 -7 -16 -13 -21 -13 -15 0 -32 -23 -46 -62 -11 -31
-11 -45 0 -75 15 -45 31 -63 52 -63 9 0 16 -4 16 -10 0 -5 20 -10 45 -10 52 0
98 33 120 88 13 29 12 37 -5 77 -11 25 -27 48 -37 52 -10 4 -24 13 -31 20 -11
11 -10 14 5 20 10 4 30 20 46 36 l27 29 29 -31 c16 -17 36 -31 45 -31 9 0 16
-4 16 -10 0 -19 53 -10 97 15 23 14 43 32 43 40 0 8 5 15 10 15 14 0 13 66 -2
93 -6 12 -24 34 -40 49 l-29 27 39 41 40 40 35 -35 c32 -32 40 -35 91 -35 31
0 56 5 56 10 0 6 7 10 15 10 9 0 19 8 22 18 11 28 43 44 43 21 0 -7 12 -22 28
-35 55 -48 192 -19 192 40 0 25 14 19 27 -11 7 -16 26 -34 43 -41 37 -17 38
-24 3 -39 -40 -18 -56 -49 -55 -110 0 -42 5 -57 26 -78 14 -14 32 -25 41 -25
8 0 15 -2 15 -5 0 -5 -93 -97 -94 -93 -8 22 -27 45 -44 53 -12 5 -22 13 -22
17 0 13 -88 9 -112 -4 -34 -20 -48 -35 -48 -52 0 -24 -8 -20 -50 24 -35 36
-43 40 -87 40 -42 0 -55 -5 -86 -34 -33 -30 -37 -39 -37 -84 0 -46 4 -54 42
-91 23 -23 39 -42 37 -44 -2 -1 -15 -8 -29 -15 -32 -16 -50 -55 -50 -106 0
-33 6 -45 41 -78 42 -40 41 -54 -3 -71 -10 -3 -18 -13 -18 -22 0 -25 -30 -17
-60 15 -22 24 -38 31 -72 32 -55 3 -101 -16 -118 -48 -14 -25 -30 -32 -30 -13
0 19 -53 59 -80 60 -88 6 -124 -14 -148 -82 -15 -44 2 -95 43 -127 28 -22 33
-52 9 -52 -21 0 -37 -18 -52 -62 -11 -31 -11 -45 0 -75 14 -41 22 -51 56 -70
26 -15 112 -17 112 -3 0 6 7 10 15 10 8 0 19 8 24 18 27 46 27 46 75 -2 51
-51 53 -56 31 -56 -9 0 -27 -11 -40 -25 -21 -20 -25 -34 -25 -83 0 -51 4 -63
26 -86 15 -14 33 -26 40 -26 8 0 14 -4 14 -10 0 -5 -6 -10 -14 -10 -7 0 -25
-12 -40 -26 -22 -23 -26 -35 -26 -86 0 -49 4 -63 25 -83 13 -14 29 -25 35 -25
19 0 10 -17 -31 -59 -43 -44 -44 -44 -70 2 -5 9 -16 17 -24 17 -8 0 -15 5 -15
10 0 14 -86 13 -113 -2 -31 -16 -40 -28 -55 -70 -20 -57 4 -119 55 -146 27
-15 113 -16 113 -2 0 6 7 10 15 10 8 0 19 8 24 18 26 45 27 45 70 1 41 -42 50
-59 31 -59 -6 0 -22 -11 -35 -25 -21 -20 -25 -34 -25 -83 0 -51 4 -63 26 -86
15 -14 33 -26 40 -26 8 0 14 -4 14 -10 0 -5 -6 -10 -14 -10 -7 0 -25 -12 -40
-26 -22 -23 -26 -35 -26 -86 0 -49 4 -63 25 -83 13 -14 31 -25 40 -25 8 0 15
-4 15 -10 0 -32 118 9 135 48 5 12 13 22 17 22 12 0 9 69 -4 93 -6 12 -25 34
-41 50 l-29 27 29 28 c16 15 35 37 41 49 15 27 16 93 2 93 -5 0 -10 7 -10 15
0 9 -13 24 -30 33 -28 16 -41 42 -22 42 29 0 72 67 72 110 0 43 -43 110 -72
110 -19 0 -6 26 22 42 17 9 30 24 30 33 0 8 5 15 10 15 14 0 13 66 -2 93 -6
12 -24 34 -40 49 l-29 27 35 36 c19 19 40 35 46 35 5 0 22 -13 38 -29 50 -52
126 -50 177 5 35 38 35 117 1 157 -13 15 -28 27 -35 27 -6 0 -20 5 -30 12 -15
9 -29 9 -63 -2 -47 -16 -61 -26 -71 -52 -9 -25 -30 -22 -42 5 -6 12 -20 26
-32 32 -27 12 -30 33 -5 42 34 13 62 59 62 103 0 42 -34 100 -60 100 -26 0
-18 30 16 64 36 36 64 41 64 12 0 -8 14 -20 30 -28 17 -7 30 -16 30 -20 0 -5
18 -8 40 -8 22 0 40 5 40 10 0 6 7 10 16 10 9 0 27 12 40 28 33 38 34 118 1
154 -13 14 -31 29 -42 35 -16 9 -14 14 25 49 48 44 60 51 60 34 0 -22 48 -58
81 -61 62 -4 84 1 113 26 25 21 28 30 28 84 0 51 -4 64 -26 85 -14 15 -30 26
-36 26 -17 0 -11 19 11 38 35 29 47 41 51 54 3 8 21 -4 45 -30 34 -36 46 -42
82 -42 56 0 111 32 111 64 0 9 3 16 6 16 9 0 98 -90 93 -93 -2 -1 -15 -8 -29
-15 -32 -16 -50 -55 -50 -105 0 -31 7 -46 35 -74 30 -30 42 -35 83 -36 50 -1
102 24 102 49 0 8 5 14 10 14 14 0 12 86 -2 112 -20 34 -35 48 -52 48 -25 0
-19 10 29 57 50 47 55 50 55 29 0 -29 64 -66 113 -66 26 0 47 5 47 10 0 6 6
10 14 10 24 0 50 52 50 100 0 44 -26 100 -46 100 -5 0 -16 7 -24 15 -14 13
-13 16 3 22 10 4 29 18 43 32 21 21 25 34 24 82 -1 48 -5 61 -29 84 -23 24
-36 28 -84 29 -49 1 -61 -3 -84 -26 -15 -15 -27 -32 -27 -39 0 -6 -7 -8 -16
-5 -9 3 -18 6 -20 6 -2 0 -4 7 -4 15 0 8 -8 19 -17 24 -46 26 -47 28 -32 43 8
8 22 17 32 21 9 3 17 13 17 22 0 8 5 15 10 15 6 0 10 24 10 53 0 40 -5 58 -24
80 -13 15 -31 27 -40 27 -9 0 -16 5 -16 10 0 6 -18 10 -40 10 -22 0 -40 -3
-40 -8 0 -4 -13 -13 -29 -20 -16 -7 -31 -22 -34 -32 -7 -27 -30 -25 -42 2 -21
46 -102 71 -147 46 -30 -18 -68 -55 -68 -68 0 -5 -4 -10 -10 -10 -5 0 -10 5
-10 10 0 14 -40 54 -68 69 -41 22 -79 13 -124 -30 l-42 -40 -27 30 c-15 17
-34 31 -43 31 -9 0 -16 5 -16 10 0 6 -18 10 -40 10 -22 0 -40 -4 -40 -10 0 -5
-7 -10 -16 -10 -18 0 -37 -17 -47 -42 -9 -25 -30 -22 -42 5 -6 12 -20 26 -32
32 -13 5 -23 13 -23 17 0 12 -73 8 -94 -5z m952 -277 c-42 -41 -58 -49 -58
-29 0 6 -14 24 -31 40 l-31 29 29 28 c16 15 32 35 36 45 5 14 13 10 52 -28
l45 -46 -42 -39z m-18 -149 c0 -10 12 -24 28 -31 15 -8 29 -16 31 -17 5 -3
-84 -93 -93 -93 -3 0 -6 7 -6 16 0 18 -17 37 -42 47 -26 9 -22 32 8 48 14 7
30 24 35 36 10 26 39 21 39 -6z m258 -11 c16 -16 35 -30 41 -30 18 0 9 -21
-14 -34 -31 -18 -45 -33 -45 -50 0 -9 -2 -16 -5 -16 -7 0 -98 91 -93 94 1 1
15 8 30 15 14 7 29 22 31 32 7 27 22 24 55 -11z m-753 -232 c6 -13 20 -27 33
-33 31 -14 28 -27 -15 -70 l-37 -37 -27 31 c-15 17 -34 31 -43 31 -9 0 -16 3
-16 7 0 7 82 91 90 92 3 1 10 -9 15 -21z m-487 -506 c15 -16 35 -31 45 -35 16
-6 17 -9 3 -22 -8 -8 -19 -15 -25 -15 -5 0 -18 -13 -28 -30 -9 -16 -20 -30
-23 -30 -3 0 -14 14 -23 30 -10 17 -24 30 -32 30 -27 0 -21 26 14 62 20 20 38
37 39 37 2 1 16 -12 30 -27z"/>
<path d="M3833 6703 c-32 -6 -73 -52 -74 -82 -4 -61 4 -95 26 -117 13 -13 31
-24 40 -24 8 0 15 -3 15 -6 0 -9 -28 -34 -38 -34 -21 0 -46 -56 -45 -102 1
-41 6 -53 37 -84 36 -36 45 -54 26 -54 -6 0 -22 -11 -36 -25 -21 -21 -26 -36
-26 -78 -1 -61 15 -92 55 -110 15 -6 27 -14 27 -17 0 -3 -12 -11 -27 -17 -40
-18 -56 -49 -55 -110 0 -48 4 -57 35 -86 33 -31 39 -57 12 -57 -24 0 -49 -53
-48 -105 0 -27 6 -51 12 -53 6 -2 11 -10 11 -18 0 -8 8 -18 18 -21 18 -7 42
-28 42 -37 0 -3 -7 -6 -15 -6 -9 0 -27 -11 -41 -25 -21 -21 -26 -36 -26 -78
-1 -86 36 -123 122 -121 37 0 53 6 71 25 33 34 49 64 49 91 0 30 -33 83 -65
104 -20 13 -23 19 -14 30 6 8 17 14 24 14 8 0 19 14 27 30 7 17 16 30 20 30 5
0 8 18 8 40 0 22 -4 40 -10 40 -5 0 -10 7 -10 16 0 18 -23 44 -40 44 -24 0
-22 31 4 51 50 39 68 98 44 141 -18 30 -55 68 -68 68 -5 0 -10 5 -10 10 0 6 5
10 10 10 14 0 60 46 60 60 0 19 18 10 55 -27 32 -32 43 -37 86 -37 44 0 52 4
88 42 44 46 51 50 51 27 0 -9 11 -27 25 -41 48 -48 161 -31 187 27 16 36 20
36 36 0 7 -17 26 -36 43 -43 30 -14 39 -28 15 -28 -7 0 -25 -12 -40 -26 -22
-23 -26 -35 -26 -86 0 -48 4 -63 23 -81 52 -49 88 -58 137 -32 64 33 96 107
69 157 -15 28 -55 68 -69 68 -5 0 -10 5 -10 10 0 6 5 10 11 10 6 0 26 16 44
35 l32 36 38 -38 c32 -32 43 -37 85 -37 42 0 53 5 84 36 30 30 36 43 36 78 0
58 -30 110 -64 110 -9 0 -16 5 -16 10 0 6 -18 10 -40 10 -22 0 -40 -4 -40 -10
0 -5 -8 -10 -17 -10 -10 0 -29 -14 -42 -30 -25 -33 -41 -38 -41 -16 0 8 -13
23 -30 33 -32 18 -41 53 -14 53 20 0 44 24 44 44 0 9 5 16 10 16 6 0 10 18 10
40 0 22 -4 40 -10 40 -5 0 -10 7 -10 16 0 32 -55 64 -110 64 -31 0 -48 -7 -75
-32 -32 -29 -35 -36 -35 -88 0 -52 3 -59 35 -89 35 -32 44 -51 24 -51 -6 0
-24 -14 -40 -31 l-29 -31 -28 28 c-35 36 -66 54 -93 54 -33 0 -106 -46 -112
-71 -5 -19 -8 -20 -21 -9 -9 7 -16 18 -16 25 0 6 -12 18 -27 25 -16 8 -30 16
-32 17 -2 2 14 21 37 44 38 36 42 45 42 89 0 42 -5 53 -36 84 -31 31 -42 36
-84 36 -43 0 -53 -4 -88 -40 -43 -44 -52 -48 -52 -24 0 17 -23 44 -38 44 -5 0
-15 6 -21 14 -9 11 -6 17 14 30 32 21 65 74 65 104 0 26 -16 57 -47 89 -22 23
-78 35 -120 26z m203 -447 c48 -47 52 -56 28 -56 -18 0 -44 -23 -44 -40 0 -25
-30 -18 -64 16 -20 20 -36 39 -36 43 0 4 14 17 30 29 17 13 30 29 30 37 0 23
9 18 56 -29z"/>
<path d="M5806 6703 c-36 -10 -86 -76 -86 -113 0 -58 75 -130 135 -130 14 0
25 5 25 10 0 6 7 10 15 10 9 0 27 11 41 25 44 44 34 151 -17 183 -22 14 -87
23 -113 15z"/>
<path d="M1120 6210 c0 -5 -7 -10 -16 -10 -18 0 -36 -16 -52 -47 -15 -27 -16
-113 -2 -113 6 0 10 -6 10 -14 0 -25 52 -50 102 -49 41 1 53 6 83 36 28 28 35
43 35 74 0 55 -19 89 -63 112 -41 22 -97 28 -97 11z"/>
<path d="M5792 6200 c-60 -37 -87 -105 -59 -152 17 -30 54 -68 67 -68 5 0 10
-4 10 -10 0 -5 -5 -10 -10 -10 -13 0 -50 -38 -67 -68 -25 -43 -7 -102 42 -140
29 -23 32 -40 8 -49 -25 -10 -43 -29 -43 -47 0 -8 -4 -18 -10 -21 -12 -7 -14
-75 -2 -75 4 0 13 -13 20 -30 8 -16 19 -30 27 -30 7 0 18 -6 24 -14 9 -11 6
-17 -14 -30 -32 -21 -65 -74 -65 -104 0 -36 54 -112 80 -112 5 0 10 -4 10 -10
0 -5 -5 -10 -10 -10 -13 0 -50 -38 -67 -68 -25 -43 -16 -79 32 -127 61 -62
106 -61 173 3 19 18 24 33 24 75 1 61 -15 92 -54 110 -35 15 -35 19 1 35 57
25 75 139 29 185 -13 12 -31 26 -41 30 -15 6 -16 9 -5 20 7 7 21 16 31 20 9 3
17 13 17 21 0 8 5 16 12 18 19 7 15 99 -6 131 -10 15 -24 27 -31 27 -7 0 -16
7 -19 16 -8 21 -8 24 4 24 6 0 22 12 37 26 20 20 25 36 26 74 1 59 -17 96 -55
112 -15 7 -28 15 -28 18 0 3 13 11 28 18 38 16 56 53 55 112 -1 38 -6 54 -25
72 -55 53 -93 60 -146 28z"/>
<path d="M1619 5962 c-14 -1 -38 -14 -53 -27 -25 -21 -28 -31 -29 -83 0 -51 4
-63 24 -83 56 -54 94 -61 147 -29 60 37 87 105 60 152 -34 58 -80 80 -149 70z"/>
<path d="M8267 5955 c-60 -21 -74 -49 -68 -134 2 -32 39 -81 61 -81 15 0 12
-17 -5 -32 -39 -32 -53 -52 -59 -80 -9 -46 3 -80 45 -120 43 -41 46 -48 24
-48 -9 0 -27 -12 -42 -26 -20 -20 -25 -36 -26 -74 -1 -64 17 -95 66 -115 69
-27 125 -6 165 63 26 45 -2 127 -51 150 -23 11 -26 16 -16 28 6 8 16 14 21 14
15 0 38 27 38 44 0 24 9 20 52 -24 35 -36 45 -40 88 -40 42 0 53 5 84 36 31
31 36 42 36 85 0 42 -5 53 -35 84 -31 30 -42 35 -85 35 -43 0 -53 -4 -88 -40
-43 -44 -52 -48 -52 -24 0 18 -17 37 -42 47 -26 9 -22 31 8 47 25 14 54 67 54
100 0 23 -23 67 -47 89 -27 26 -81 32 -126 16z"/>
<path d="M8776 5962 c-32 -4 -76 -43 -76 -67 0 -8 -4 -15 -10 -15 -27 0 -1
-84 37 -119 60 -56 108 -54 172 8 44 43 31 153 -23 179 -29 14 -65 19 -100 14z"/>
<path d="M1075 5685 c-30 -31 -35 -42 -35 -83 0 -41 5 -54 34 -85 30 -33 39
-37 84 -37 44 0 54 4 86 36 31 31 36 42 36 84 0 42 -5 53 -36 84 -31 31 -42
36 -85 36 -42 0 -53 -5 -84 -35z"/>
<path d="M6256 5684 c-31 -31 -36 -42 -36 -84 0 -42 5 -53 36 -84 32 -32 42
-36 86 -36 45 0 53 4 89 41 22 23 41 40 42 38 2 -2 8 -15 15 -29 7 -14 23 -30
34 -35 31 -14 33 -32 5 -38 -40 -11 -93 -137 -57 -137 6 0 10 -7 10 -16 0 -9
14 -29 31 -45 l31 -29 -31 -29 c-17 -16 -31 -36 -31 -45 0 -24 -9 -20 -47 24
-34 38 -38 40 -93 40 -52 0 -59 -3 -88 -35 -25 -27 -32 -44 -32 -75 0 -55 32
-110 64 -110 9 0 16 -4 16 -10 0 -5 18 -10 40 -10 22 0 40 5 40 10 0 6 7 10
16 10 17 0 44 23 44 37 0 5 5 14 11 20 8 8 22 1 50 -30 38 -39 45 -67 16 -67
-15 0 -57 -73 -57 -100 0 -30 41 -97 67 -109 13 -6 43 -11 67 -11 35 0 48 6
76 35 29 30 34 42 34 86 0 46 -4 54 -38 86 l-37 35 34 32 c38 35 51 72 42 120
-8 39 -45 86 -69 86 -25 0 -19 14 13 28 17 7 36 26 43 43 16 36 23 36 39 0 18
-39 51 -56 110 -55 42 0 52 5 82 37 l34 37 42 -41 c39 -38 40 -42 24 -55 -10
-7 -21 -14 -25 -14 -25 -1 -53 -140 -28 -140 6 0 10 -7 10 -16 0 -20 24 -44
44 -44 9 0 16 -4 16 -10 0 -5 18 -10 40 -10 22 0 40 5 40 10 0 6 7 10 16 10
18 0 36 16 52 47 15 27 16 113 2 113 -5 0 -10 6 -10 14 0 8 -13 23 -30 33 -16
9 -30 20 -30 23 0 3 14 14 30 23 17 10 30 25 30 33 0 8 5 14 10 14 14 0 13 86
-2 113 -15 28 -34 47 -47 47 -6 0 -20 5 -30 12 -15 9 -29 9 -63 -2 -49 -16
-68 -31 -68 -54 0 -9 -8 -16 -20 -16 -11 0 -20 7 -20 15 0 9 -13 24 -30 33
-34 19 -39 39 -12 49 25 10 42 29 42 47 0 9 5 16 10 16 6 0 10 18 10 40 0 22
-4 40 -10 40 -5 0 -10 7 -10 16 0 17 -14 32 -48 52 -26 14 -112 16 -112 2 0
-5 -7 -10 -15 -10 -9 0 -19 -8 -22 -17 -4 -10 -13 -24 -21 -32 -15 -15 -17
-14 -43 32 -5 9 -16 17 -24 17 -8 0 -15 5 -15 10 0 14 -81 12 -113 -2 -14 -7
-32 -24 -39 -38 -7 -14 -13 -26 -14 -28 -1 -2 -21 15 -44 37 -38 36 -48 41
-90 41 -42 0 -53 -5 -84 -36z m499 -169 c50 -50 52 -55 30 -55 -18 0 -65 -43
-65 -60 0 -5 -4 -10 -10 -10 -5 0 -10 5 -10 10 0 17 -47 60 -65 60 -8 0 -15 2
-15 5 0 4 78 88 87 94 1 0 23 -19 48 -44z"/>
<path d="M4807 5596 c-10 -10 -18 -12 -22 -6 -3 6 -18 8 -33 5 -56 -12 -108
-29 -122 -41 -8 -7 -27 -10 -42 -7 -16 3 -28 1 -28 -5 0 -6 -8 -13 -17 -15
-17 -4 -17 -5 0 -6 9 0 17 -6 17 -12 0 -7 -12 -9 -34 -5 -29 6 -34 3 -40 -16
-3 -13 -1 -24 4 -26 6 -2 10 -12 10 -23 0 -22 20 -25 39 -6 11 10 14 10 18 0
7 -18 20 -16 43 7 22 22 40 26 40 10 0 -5 -4 -10 -10 -10 -5 0 -10 -7 -10 -16
0 -8 -4 -12 -10 -9 -5 3 -10 1 -10 -4 0 -6 9 -11 20 -11 15 0 20 -7 20 -29 0
-50 -22 -56 -66 -16 -44 40 -83 46 -91 14 -6 -21 -7 -21 -19 -4 -13 18 -15 17
-35 -6 -15 -16 -23 -20 -26 -11 -8 20 -46 14 -78 -14 -24 -20 -27 -27 -15 -34
8 -5 11 -12 7 -16 -4 -4 -16 3 -27 16 -11 13 -20 19 -20 13 0 -5 -11 -23 -25
-39 -14 -16 -25 -33 -25 -37 0 -5 -7 -15 -15 -23 -8 -9 -15 -25 -15 -37 0 -17
2 -19 9 -8 8 12 12 12 25 -2 19 -19 21 -43 4 -50 -10 -4 -10 -8 1 -15 18 -13
10 -110 -10 -123 -11 -6 -16 3 -25 41 -6 27 -17 57 -25 66 -12 15 -15 10 -27
-42 -20 -89 -23 -113 -28 -184 -3 -53 -2 -61 8 -42 14 27 38 29 38 2 0 -11 -5
-20 -11 -20 -6 0 -9 -9 -6 -20 3 -10 1 -20 -3 -22 -10 -4 8 -140 21 -152 14
-15 19 -3 26 53 3 28 10 51 14 51 14 0 29 -36 35 -85 l7 -45 -32 0 c-19 0 -31
-5 -31 -13 0 -18 24 -67 33 -67 4 0 7 -9 7 -20 0 -11 3 -20 8 -20 4 0 18 -17
32 -38 33 -49 158 -172 175 -172 8 0 18 -7 23 -16 5 -10 23 -16 45 -17 28 -1
34 -4 26 -13 -8 -10 -1 -15 26 -23 37 -10 65 -6 65 10 0 5 14 9 30 9 17 0 30
-4 30 -10 0 -5 7 -7 16 -3 12 4 15 2 12 -8 -3 -8 -24 -16 -49 -19 l-44 -6 41
-12 c71 -21 132 -26 149 -12 12 10 15 9 15 -5 0 -16 7 -17 71 -11 161 16 278
53 379 119 63 41 205 187 229 236 12 23 31 60 43 84 38 75 72 220 72 307 0 52
-17 151 -33 195 -6 17 -13 42 -16 57 -3 15 -12 33 -20 42 -8 8 -15 20 -15 26
0 10 -27 69 -37 80 -2 2 -8 -2 -13 -10 -5 -8 -12 -11 -17 -7 -4 5 -1 12 6 16
11 7 11 13 1 32 -19 36 -182 189 -202 189 -17 0 -7 -17 32 -53 22 -20 40 -39
40 -42 0 -3 -13 -5 -29 -5 -22 0 -31 6 -41 30 -16 39 -33 38 -53 -5 -22 -47
-7 -85 35 -85 15 0 28 -4 28 -10 0 -5 9 -10 20 -10 22 0 26 -10 9 -27 -9 -9
-5 -18 15 -36 14 -13 26 -29 26 -36 0 -6 4 -11 9 -11 5 0 16 -16 25 -35 18
-37 30 -44 39 -21 4 9 14 12 27 9 14 -4 27 2 40 17 11 13 23 20 27 16 4 -4 1
-11 -6 -15 -9 -6 -11 -18 -8 -33 3 -13 2 -30 -3 -38 -9 -13 -11 -13 -20 0 -8
13 -13 11 -35 -12 -30 -33 -31 -49 -5 -68 21 -15 28 -50 10 -50 -5 0 -10 -9
-10 -20 0 -11 5 -20 10 -20 16 0 12 -47 -5 -53 -8 -4 -17 -2 -20 3 -9 14 -25
12 -25 -3 0 -15 -97 -116 -141 -148 -22 -16 -28 -26 -23 -41 5 -16 3 -20 -9
-15 -11 4 -14 2 -10 -9 3 -7 9 -14 14 -14 5 0 9 -5 9 -11 0 -6 -9 -9 -20 -6
-16 4 -20 0 -20 -19 0 -25 -18 -32 -37 -13 -8 8 -17 8 -32 -3 -31 -22 -131
-118 -131 -126 0 -4 -27 -31 -60 -61 -75 -65 -89 -64 -172 19 -54 55 -61 59
-75 44 -13 -12 -13 -18 -4 -24 7 -4 11 -16 9 -26 -5 -18 -5 -18 -13 1 -5 11
-13 23 -19 28 -8 5 -6 10 4 16 8 6 11 13 7 17 -4 4 -15 0 -25 -10 -12 -14 -14
-20 -4 -23 6 -3 12 -13 12 -24 0 -10 5 -19 10 -19 16 0 12 -36 -6 -50 -12 -11
-18 -10 -31 3 -13 13 -14 19 -4 31 17 21 7 46 -18 46 -17 0 -19 5 -14 35 4 26
2 35 -8 35 -23 0 -69 46 -69 69 0 18 -4 21 -20 16 -11 -4 -20 -2 -20 4 0 6 5
11 10 11 6 0 10 5 10 11 0 6 -9 8 -20 4 -14 -5 -20 -2 -20 9 0 22 33 20 55 -4
10 -11 22 -20 28 -20 5 0 22 -13 37 -30 15 -16 35 -30 44 -30 9 0 16 -4 16
-10 0 -5 -4 -10 -10 -10 -5 0 -10 -13 -10 -30 0 -36 4 -37 36 -7 l25 24 -70
69 c-105 104 -150 144 -161 144 -5 0 -10 4 -10 8 0 5 -27 37 -60 70 -73 76
-76 95 -20 181 22 34 40 66 40 71 0 4 3 10 8 12 4 2 18 23 32 48 13 25 32 54
42 64 10 11 18 24 18 29 0 22 45 47 84 47 391 1 594 1 607 1 15 -1 69 -73 69
-92 0 -6 5 -15 11 -22 17 -20 54 -79 77 -124 25 -48 38 -68 60 -91 23 -24 41
-24 26 0 -5 7 -9 31 -10 52 0 22 -6 42 -12 44 -16 5 -15 39 0 44 9 3 8 10 -5
22 -10 10 -21 15 -25 11 -4 -4 -1 -10 6 -12 23 -9 12 -23 -18 -23 -30 0 -40
14 -17 24 9 4 9 8 1 11 -8 4 -10 21 -6 47 l5 41 -32 -6 c-23 -5 -33 -3 -37 8
-4 8 -15 15 -25 15 -25 0 -24 30 1 37 28 7 25 19 -10 33 -16 7 -30 16 -30 20
0 11 -125 70 -148 70 -9 0 -41 9 -70 18 l-54 18 -3 82 c-3 83 -2 87 35 83 48
-5 60 -12 60 -36 0 -21 -5 -25 -31 -25 -23 0 -30 -4 -26 -15 4 -8 2 -17 -3
-20 -22 -13 -8 -34 25 -41 42 -8 60 5 69 46 6 33 28 39 52 16 20 -21 17 -46
-5 -46 -22 0 -48 -27 -36 -38 4 -4 10 -1 12 6 3 6 13 12 23 12 10 0 21 6 24
13 5 10 7 10 12 0 13 -28 64 -3 64 31 0 8 8 16 17 18 15 3 15 4 -1 21 -20 20
-56 23 -56 4 0 -7 5 -18 12 -25 6 -6 8 -15 3 -19 -4 -5 -10 -2 -12 5 -3 6 -11
12 -20 12 -19 0 -43 24 -43 44 0 10 9 16 23 16 18 0 19 2 7 10 -8 5 -23 7 -32
4 -9 -3 -42 6 -72 20 -30 14 -68 25 -83 26 -15 0 -53 3 -84 6 -43 4 -59 2 -72
-10z m88 -6 c4 -6 -7 -10 -24 -10 -17 0 -31 5 -31 10 0 6 11 10 24 10 14 0 28
-4 31 -10z m-255 -99 c0 -11 -59 -20 -65 -11 -3 4 -2 10 2 14 10 9 63 7 63 -3z
m-100 -22 c0 -5 -9 -9 -20 -9 -19 0 -26 11 -14 23 8 8 34 -3 34 -14z m850
-114 c7 -14 17 -25 22 -25 4 0 8 -15 8 -34 0 -19 4 -36 10 -38 5 -1 16 -20 25
-40 15 -36 14 -38 -4 -38 -15 0 -21 9 -26 39 -4 22 -13 42 -21 45 -7 3 -11 12
-8 21 5 11 -1 15 -21 15 -28 0 -55 20 -55 41 0 8 6 7 18 -4 20 -18 52 -23 52
-8 0 5 -7 11 -15 15 -16 6 -21 36 -7 36 5 0 15 -11 22 -25z m-920 -27 c0 -9 3
-8 10 2 8 13 11 13 22 -1 7 -9 30 -20 51 -23 21 -4 35 -11 32 -17 -8 -12 -85
-12 -85 0 0 13 -27 21 -45 15 -16 -6 -21 -64 -6 -64 16 0 6 -62 -12 -75 -9 -7
-17 -20 -17 -29 0 -9 -4 -16 -10 -16 -5 0 -10 14 -10 30 0 20 5 30 15 30 21 0
31 30 14 40 -7 5 -25 6 -39 4 -20 -4 -27 0 -37 22 -11 23 -10 29 5 40 16 12
15 13 -6 14 -13 0 -20 4 -17 10 3 6 15 10 26 10 10 0 19 -4 19 -10 0 -5 13
-10 29 -10 20 0 30 6 34 20 6 22 27 28 27 8z m518 -35 c-10 -2 -26 -2 -35 0
-10 3 -2 5 17 5 19 0 27 -2 18 -5z m95 0 c-13 -2 -33 -2 -45 0 -13 2 -3 4 22
4 25 0 35 -2 23 -4z m-803 -33 c0 -11 -4 -20 -10 -20 -5 0 -10 9 -10 20 0 11
5 20 10 20 6 0 10 -9 10 -20z m213 6 c3 -8 3 -17 0 -20 -7 -7 -33 13 -33 25 0
15 27 10 33 -5z m887 4 c0 -5 -11 -10 -25 -10 -14 0 -25 5 -25 10 0 6 11 10
25 10 14 0 25 -4 25 -10z m-1055 -70 c9 0 21 -13 26 -30 6 -16 15 -30 20 -30
5 0 9 -8 9 -18 0 -14 -9 -18 -40 -19 l-40 -2 0 40 c0 21 -4 39 -10 39 -5 0
-10 -16 -10 -35 0 -19 -4 -35 -10 -35 -5 0 -10 16 -10 35 0 19 5 35 10 35 6 0
10 11 10 23 0 32 13 42 22 17 4 -11 14 -20 23 -20z m35 -129 c0 -5 -6 -19 -13
-32 -14 -26 -40 -38 -31 -14 4 8 10 15 15 15 5 0 9 9 9 20 0 11 5 20 10 20 6
0 10 -4 10 -9z m1158 -40 c14 -12 22 -30 22 -51 0 -28 2 -31 15 -20 12 10 15
10 15 -4 0 -9 -4 -16 -10 -16 -15 0 -12 -33 6 -58 13 -19 14 -27 2 -52 -7 -17
-16 -30 -21 -30 -4 0 -21 -13 -37 -29 -24 -22 -30 -37 -30 -70 0 -22 5 -41 10
-41 6 0 10 5 10 10 0 6 4 10 8 10 14 0 11 -73 -3 -87 -22 -21 -45 -16 -42 10
2 17 -3 22 -20 20 -25 -3 -26 -2 -17 21 3 9 12 16 20 16 8 0 14 10 14 25 0 15
-6 25 -14 25 -21 0 -31 21 -15 32 11 7 11 11 2 15 -23 9 -14 20 26 32 21 6 42
18 45 26 3 8 17 15 31 15 14 0 25 4 25 9 0 21 -13 41 -26 41 -8 0 -14 9 -14
20 0 13 -7 20 -19 20 -27 0 -32 12 -21 49 7 24 6 31 -6 31 -8 0 -14 8 -14 18
0 37 25 42 58 13z m57 -21 c3 -5 1 -10 -4 -10 -6 0 -11 5 -11 10 0 6 2 10 4
10 3 0 8 -4 11 -10z m-1291 -42 c-4 -13 -10 -25 -15 -28 -4 -3 -9 -28 -11 -55
-3 -44 -6 -50 -26 -53 -18 -3 -23 1 -21 15 2 10 -1 32 -5 50 -10 42 8 76 35
68 13 -4 19 -2 19 9 0 9 7 16 16 16 11 0 14 -6 8 -22z m-124 -78 c0 -5 -2 -10
-4 -10 -3 0 -8 5 -11 10 -3 6 -1 10 4 10 6 0 11 -4 11 -10z m1340 -40 c0 -5
-4 -10 -10 -10 -5 0 -10 5 -10 10 0 6 5 10 10 10 6 0 10 -4 10 -10z m-1160
-49 c0 -11 -9 -23 -20 -26 -27 -8 -28 -55 -2 -55 20 0 50 -45 38 -57 -4 -4
-11 -1 -16 7 -5 8 -13 11 -17 6 -4 -5 -2 -11 5 -13 14 -5 16 -43 2 -43 -19 0
-9 -25 16 -43 14 -11 34 -17 46 -14 28 8 48 -2 48 -24 0 -10 5 -19 10 -19 6 0
10 -8 10 -18 0 -23 19 -42 42 -42 10 0 18 -4 18 -10 0 -5 9 -10 19 -10 23 0
31 -17 24 -51 -3 -16 1 -30 11 -38 20 -17 21 -41 1 -41 -20 0 -19 -26 1 -34
11 -4 18 1 21 14 6 23 23 27 23 6 0 -20 109 -30 233 -22 98 6 98 6 95 -16 -3
-20 -11 -24 -63 -29 -33 -4 -108 -7 -166 -8 -88 -1 -108 2 -125 17 -10 10 -27
21 -36 25 -10 3 -18 12 -18 19 0 7 -9 19 -20 26 -11 7 -20 23 -20 37 0 30 -28
65 -46 58 -8 -3 -14 0 -14 6 0 6 -9 11 -20 11 -11 0 -20 5 -20 10 0 6 9 10 20
10 11 0 20 -4 20 -10 0 -5 9 -10 20 -10 11 0 20 3 20 6 0 12 -26 31 -52 37
-15 4 -33 14 -42 22 -16 17 -66 21 -66 5 0 -5 -4 -10 -10 -10 -5 0 -10 7 -10
16 0 9 -7 22 -15 28 -19 14 -32 76 -16 76 6 0 11 -7 11 -15 0 -16 15 -21 23
-7 3 4 -1 30 -8 57 -9 36 -14 44 -18 30 -2 -11 -3 3 0 30 9 88 22 125 43 125
13 0 20 -7 20 -19z m1061 6 c-1 -4 -1 -20 -1 -37 0 -16 -4 -30 -10 -30 -5 0
-10 9 -10 20 0 25 -9 25 -26 3 -19 -26 -17 -40 7 -46 21 -6 21 -6 -4 -31 -25
-25 -57 -35 -57 -18 0 4 9 14 20 22 11 8 20 18 20 22 0 4 -9 8 -20 8 -11 0
-20 2 -20 5 0 2 19 25 43 49 38 41 60 54 58 33z m170 -100 c-8 -8 -11 2 -10
34 l1 44 10 -34 c6 -23 6 -37 -1 -44z m-1201 43 c0 -5 -7 -10 -15 -10 -8 0
-15 5 -15 10 0 6 7 10 15 10 8 0 15 -4 15 -10z m90 -74 c0 -19 -4 -23 -20 -19
-23 6 -24 9 -7 28 18 21 27 18 27 -9z m960 14 c0 -5 -4 -10 -10 -10 -5 0 -10
5 -10 10 0 6 5 10 10 10 6 0 10 -4 10 -10z m-1014 -35 c4 -8 12 -15 19 -15 12
0 29 -40 21 -48 -6 -5 -66 56 -66 68 0 15 20 12 26 -5z m982 6 c10 -6 11 -19
6 -47 -8 -45 -26 -66 -48 -58 -19 7 -19 9 -5 35 9 17 7 21 -10 26 -26 7 -27
23 -2 23 10 0 21 7 25 15 6 17 15 19 34 6z m-101 -16 c8 -9 13 -19 10 -22 -6
-5 -37 21 -37 31 0 10 11 6 27 -9z m-47 -84 c0 -11 -9 -23 -20 -26 -11 -3 -20
-13 -20 -21 0 -8 -4 -14 -10 -14 -5 0 -10 -4 -10 -10 0 -5 7 -10 16 -10 19 0
50 33 60 62 3 12 11 17 21 14 8 -3 19 -6 23 -6 5 0 12 -16 16 -36 4 -24 13
-38 25 -41 25 -7 24 -33 -1 -33 -11 0 -20 5 -20 10 0 6 -9 10 -20 10 -11 0
-20 5 -20 10 0 6 -14 10 -31 10 -28 0 -31 -2 -25 -25 4 -14 2 -25 -3 -25 -22
0 -81 36 -87 53 -3 9 -10 17 -15 17 -12 0 -43 29 -38 34 2 2 15 9 27 15 28 15
40 8 23 -13 -7 -8 -8 -16 -4 -19 18 -10 49 4 73 32 29 35 40 39 40 12z m147
-33 c-3 -8 -6 -5 -6 6 -1 11 2 17 5 13 3 -3 4 -12 1 -19z m113 8 c0 -3 -4 -8
-10 -11 -5 -3 -10 -1 -10 4 0 6 5 11 10 11 6 0 10 -2 10 -4z m-1240 -26 c0 -5
-4 -10 -10 -10 -5 0 -10 5 -10 10 0 6 5 10 10 10 6 0 10 -4 10 -10z m820 -20
c0 -5 -4 -10 -10 -10 -5 0 -10 5 -10 10 0 6 5 10 10 10 6 0 10 -4 10 -10z
m384 -24 c-4 -16 -13 -26 -24 -26 -10 0 -22 -9 -25 -20 -7 -21 -20 -26 -29
-12 -3 5 4 15 15 22 10 8 19 22 19 32 0 11 7 18 20 18 11 0 20 5 20 12 0 6 2
9 5 6 4 -3 3 -17 -1 -32z m-1162 -22 c9 -19 19 -24 46 -24 42 0 72 -24 72 -57
0 -12 5 -23 10 -23 6 0 10 -13 10 -30 0 -34 2 -35 30 -18 10 7 22 9 26 6 8 -9
-21 -38 -38 -38 -17 1 -67 39 -50 40 14 0 17 40 2 40 -5 0 -10 -4 -10 -10 0
-5 -9 -10 -20 -10 -11 0 -20 7 -20 15 0 9 -7 18 -15 21 -10 4 -13 13 -9 26 5
17 3 19 -15 13 -13 -4 -21 -2 -21 5 0 6 -11 22 -25 36 -14 14 -25 32 -25 40 0
22 38 -1 52 -32z m278 26 c0 -5 -9 -10 -21 -10 -11 0 -17 5 -14 10 3 6 13 10
21 10 8 0 14 -4 14 -10z m466 -4 c17 -17 18 -43 3 -48 -6 -2 -9 -13 -6 -23 5
-19 5 -19 12 3 9 26 50 31 59 6 7 -17 -18 -43 -41 -44 -7 0 -13 -4 -13 -10 0
-5 -9 -10 -21 -10 -16 0 -19 4 -14 20 5 17 2 20 -25 20 -36 0 -60 -19 -60 -48
0 -20 -28 -38 -39 -26 -3 4 0 9 7 11 6 3 12 11 12 19 0 24 42 64 67 64 13 0
26 8 30 18 4 9 11 21 17 25 8 6 7 10 -1 14 -13 5 -18 23 -7 23 3 0 12 -6 20
-14z m274 -36 c0 -5 9 -10 20 -10 11 0 20 -6 20 -14 0 -8 2 -20 3 -28 2 -7 2
-10 0 -5 -8 13 -23 7 -23 -9 0 -18 -23 -44 -40 -44 -6 0 -9 -8 -6 -18 5 -15 0
-18 -34 -19 -39 -2 -40 -1 -40 33 0 41 26 76 40 54 5 -8 6 -18 4 -22 -3 -4 8
-8 25 -8 29 0 30 2 28 40 -1 22 -5 40 -9 40 -4 0 -8 5 -8 10 0 6 5 10 10 10 6
0 10 -4 10 -10z m-540 -40 c0 -5 -4 -10 -10 -10 -5 0 -10 5 -10 10 0 6 5 10
10 10 6 0 10 -4 10 -10z m368 -37 c5 -10 12 -30 16 -44 5 -22 2 -28 -17 -34
-12 -4 -27 -7 -34 -6 -6 1 -14 -3 -18 -9 -3 -5 -13 -10 -22 -10 -12 0 -14 6
-8 28 3 15 13 31 21 35 8 4 14 16 14 27 0 16 11 27 32 29 4 1 11 -7 16 -16z
m-355 -16 c14 -15 21 -18 24 -9 7 18 27 15 48 -8 18 -19 17 -20 -3 -20 -11 0
-23 6 -25 13 -4 9 -8 8 -16 -3 -10 -13 -14 -12 -30 8 -11 12 -26 22 -35 22
-19 0 -21 -16 -3 -23 6 -2 9 -7 6 -11 -10 -10 -59 18 -59 35 0 25 70 22 93 -4z
m-113 -7 c0 -5 -4 -10 -10 -10 -5 0 -10 5 -10 10 0 6 5 10 10 10 6 0 10 -4 10
-10z m320 2 c0 -14 -11 -21 -26 -15 -21 8 -17 23 6 23 11 0 20 -4 20 -8z m200
-62 c0 -5 -4 -10 -10 -10 -5 0 -10 5 -10 10 0 6 5 10 10 10 6 0 10 -4 10 -10z
m-165 -14 c18 -13 18 -14 -3 -25 -22 -12 -72 -15 -72 -5 0 8 41 44 50 44 3 0
15 -6 25 -14z m125 -15 c0 -11 6 -21 13 -24 6 -2 8 -8 4 -13 -4 -5 -12 -3 -16
4 -4 7 -15 10 -24 6 -20 -7 -23 11 -4 31 17 20 27 18 27 -4z m-209 -52 c29
-15 14 -29 -32 -29 -40 0 -48 7 -27 28 15 15 33 15 59 1z"/>
<path d="M5500 4960 c0 -11 7 -20 15 -20 17 0 18 2 9 24 -9 23 -24 20 -24 -4z"/>
<path d="M5260 4510 c0 -5 5 -10 10 -10 6 0 10 5 10 10 0 6 -4 10 -10 10 -5 0
-10 -4 -10 -10z"/>
<path d="M862 5465 c-47 -26 -66 -56 -66 -106 0 -56 16 -92 50 -110 25 -13 32
-29 13 -29 -20 0 -57 -52 -63 -89 -7 -46 2 -80 29 -107 58 -58 108 -59 166 -4
47 45 57 48 66 23 10 -26 29 -43 47 -43 23 0 21 -4 -24 -50 -36 -36 -40 -46
-40 -90 0 -44 4 -54 40 -90 45 -46 47 -50 24 -50 -17 0 -32 -14 -51 -48 -15
-26 -17 -112 -3 -112 6 0 10 -6 10 -14 0 -25 47 -46 103 -46 51 0 57 2 91 41
31 36 37 39 43 23 4 -11 20 -31 36 -46 l29 -28 -28 -28 c-37 -35 -54 -66 -54
-94 1 -41 34 -92 70 -110 39 -19 90 -23 90 -8 0 6 7 10 15 10 9 0 27 11 41 25
48 48 31 161 -27 185 -36 16 -36 22 0 38 17 7 36 26 43 43 14 31 28 38 28 14
0 -9 11 -27 25 -40 20 -21 34 -25 85 -25 51 0 65 4 85 25 14 13 25 29 25 35 0
17 15 11 40 -18 14 -16 34 -34 45 -40 20 -12 20 -12 1 -24 -47 -28 -66 -59
-66 -112 0 -39 5 -57 24 -78 13 -16 31 -28 40 -28 25 0 19 -13 -24 -51 -37
-32 -40 -38 -40 -88 0 -49 3 -56 37 -87 29 -26 46 -34 76 -34 76 0 127 49 127
122 0 41 -5 51 -40 86 -44 43 -48 52 -24 52 32 0 64 55 64 111 0 36 -6 48 -39
81 l-39 38 40 40 41 40 33 -35 c29 -33 36 -35 91 -35 52 0 64 4 87 26 22 23
26 35 26 86 0 48 -4 63 -23 81 -33 32 -63 47 -91 47 -33 0 -94 -37 -101 -61
-8 -24 -33 -25 -42 -1 -10 25 -29 42 -47 42 -24 0 -20 9 24 52 36 35 40 45 40
88 0 42 -5 53 -36 84 -32 32 -42 36 -86 36 -45 0 -53 -4 -88 -40 -42 -44 -50
-48 -50 -24 0 18 -17 37 -42 47 -25 9 -22 26 7 49 30 23 55 68 55 98 0 26 -18
58 -54 92 l-28 28 28 28 c37 35 54 66 54 95 0 32 -38 86 -75 108 -33 19 -85
25 -85 9 0 -5 -7 -10 -15 -10 -9 0 -27 -11 -41 -26 -22 -21 -26 -34 -26 -85 0
-54 3 -63 29 -84 15 -14 31 -25 36 -25 4 0 7 -4 7 -10 0 -5 -5 -10 -10 -10 -6
0 -22 -11 -36 -26 -22 -21 -26 -34 -26 -85 0 -53 3 -62 31 -88 37 -34 39 -53
9 -66 -14 -6 -28 -26 -36 -52 -17 -54 0 -122 36 -138 31 -14 28 -29 -18 -76
-22 -23 -40 -36 -40 -30 0 14 -36 50 -68 69 -45 25 -126 0 -147 -46 -12 -27
-45 -30 -45 -4 0 10 -12 25 -27 32 -16 8 -29 15 -31 16 -2 1 15 21 37 44 36
38 41 48 41 90 0 42 -5 52 -41 90 -22 23 -39 43 -37 44 2 1 15 8 31 16 15 7
27 22 27 32 0 10 5 18 10 18 6 0 10 21 10 46 0 39 -5 51 -34 80 -30 30 -40 34
-85 34 -50 0 -101 -21 -101 -42 0 -5 -7 -16 -15 -24 -13 -14 -16 -13 -22 3 -9
23 -49 63 -63 63 -5 0 -10 5 -10 10 0 6 5 10 10 10 17 0 60 47 60 65 0 8 5 15
10 15 18 0 10 56 -12 90 -41 61 -105 83 -156 55z m954 -690 c38 -39 42 -46 27
-52 -10 -4 -30 -20 -44 -36 l-25 -29 -38 38 c-34 34 -42 64 -16 64 17 0 40 26
40 44 0 24 6 20 56 -29z"/>
<path d="M2360 5470 c0 -5 -7 -10 -15 -10 -22 0 -58 -39 -72 -79 -10 -28 -9
-39 8 -76 24 -51 57 -70 119 -69 49 0 87 25 103 67 6 16 9 17 22 3 8 -8 15
-19 15 -25 0 -5 14 -18 30 -28 17 -9 30 -20 30 -23 0 -3 -13 -14 -30 -23 -16
-10 -30 -25 -30 -33 0 -8 -4 -14 -10 -14 -5 0 -10 -24 -10 -52 0 -55 23 -96
63 -111 15 -6 11 -13 -27 -52 -50 -49 -56 -53 -56 -29 0 18 -16 36 -47 52 -25
14 -113 16 -113 3 0 -5 -8 -11 -18 -13 -10 -3 -28 -26 -40 -52 l-22 -46 22
-46 c12 -26 30 -49 40 -52 10 -2 18 -8 18 -13 0 -13 88 -11 113 3 31 16 47 34
47 52 0 24 6 20 56 -29 38 -39 42 -46 27 -52 -40 -15 -63 -56 -63 -110 0 -29
5 -53 10 -53 6 0 10 -6 10 -14 0 -24 47 -46 100 -46 53 0 100 22 100 46 0 8 5
14 10 14 6 0 10 23 10 50 0 28 -4 50 -10 50 -5 0 -10 7 -10 16 0 20 -24 44
-44 44 -23 0 -20 8 12 38 16 15 31 35 35 45 8 21 37 23 37 1 0 -18 16 -36 47
-52 26 -14 113 -16 113 -3 0 5 9 13 20 16 11 3 20 11 20 16 0 6 6 17 14 25 12
12 19 9 50 -22 20 -20 36 -40 36 -46 0 -5 -13 -22 -28 -36 -49 -46 -53 -123
-8 -175 21 -24 31 -27 85 -27 52 0 66 4 86 25 14 13 25 31 25 40 0 8 5 15 10
15 15 0 12 47 -5 80 -8 15 -26 38 -41 49 -27 21 -27 51 0 51 8 0 20 14 28 30
7 17 15 30 19 30 3 0 21 -18 40 -40 32 -37 38 -40 87 -40 42 0 58 5 76 23 65
65 63 135 -6 199 -32 30 -35 38 -12 38 18 0 37 17 47 43 9 25 31 21 47 -8 15
-29 62 -55 97 -55 53 0 111 52 114 101 5 63 -1 86 -27 113 -23 22 -35 26 -86
26 -49 0 -63 -4 -83 -25 -14 -13 -25 -29 -25 -35 0 -19 -16 -10 -58 30 l-40
40 39 38 c33 33 39 45 39 81 0 52 -31 111 -59 111 -6 0 -20 5 -30 12 -15 9
-29 9 -63 -2 -64 -21 -88 -54 -88 -121 0 -36 6 -48 39 -81 l39 -38 -39 -38
c-33 -33 -39 -45 -39 -81 0 -56 32 -111 64 -111 9 0 16 -2 16 -5 0 -8 -90 -99
-93 -94 -1 2 -9 16 -16 30 -17 33 -50 49 -104 49 -42 0 -82 -25 -105 -67 -9
-14 -12 -15 -24 -2 -8 8 -17 22 -21 32 -3 9 -13 17 -21 17 -7 0 -17 7 -20 16
-8 21 -8 24 4 24 6 0 22 11 35 25 20 19 25 34 25 75 0 91 -28 119 -115 119
-56 1 -62 -2 -89 -33 -28 -33 -56 -38 -56 -10 0 7 -8 18 -17 23 -44 25 -44 26
-3 70 34 36 40 48 40 86 0 25 -4 45 -10 45 -5 0 -10 7 -10 16 0 21 -18 37 -62
52 -31 11 -45 11 -75 0 -43 -15 -55 -24 -73 -57 l-12 -24 -24 31 c-14 17 -39
38 -56 46 -35 18 -78 21 -78 6z m445 -447 l37 -37 -31 -27 c-17 -15 -31 -34
-31 -43 0 -22 -29 -21 -37 2 -4 9 -19 29 -35 44 -32 30 -35 38 -12 38 8 0 22
6 30 14 8 8 14 22 14 30 0 26 26 18 65 -21z"/>
<path d="M4437 5474 c-8 -8 3 -34 14 -34 5 0 9 9 9 20 0 19 -11 26 -23 14z"/>
<path d="M8755 5461 c-16 -10 -40 -32 -52 -51 -23 -34 -31 -90 -13 -90 6 0 10
-7 10 -16 0 -9 14 -29 31 -45 l31 -29 -31 -29 c-17 -16 -31 -36 -31 -45 0 -9
-4 -16 -10 -16 -15 0 -12 -47 5 -80 8 -15 26 -37 40 -48 32 -25 32 -33 -5 -60
-16 -13 -30 -29 -30 -37 0 -24 -13 -17 -50 25 -32 37 -38 40 -86 40 -46 0 -56
-4 -88 -36 -31 -31 -36 -42 -36 -84 0 -42 5 -52 41 -90 22 -23 39 -43 37 -44
-2 -1 -15 -8 -30 -16 -16 -7 -28 -22 -28 -32 0 -10 -4 -18 -10 -18 -5 0 -10
-21 -10 -47 0 -41 5 -51 39 -85 l40 -39 -45 -44 c-38 -38 -46 -42 -51 -28 -12
31 -50 61 -85 68 -49 9 -113 -18 -128 -56 -13 -32 -30 -39 -30 -13 0 19 -48
64 -67 64 -7 0 -13 5 -13 10 0 6 6 10 13 10 6 0 25 11 41 25 25 21 28 31 29
83 0 51 -4 63 -25 85 -63 63 -112 64 -173 2 -65 -65 -61 -110 14 -182 19 -18
29 -33 22 -33 -27 0 -81 -74 -81 -112 0 -30 33 -83 64 -103 27 -18 25 -45 -3
-45 -10 0 -24 -12 -31 -27 -8 -16 -15 -29 -16 -31 -1 -2 -21 15 -44 37 -38 36
-48 41 -90 41 -42 0 -53 -5 -84 -36 -31 -31 -36 -42 -36 -84 0 -44 4 -53 42
-89 23 -23 39 -42 37 -44 -2 -1 -15 -8 -29 -15 -14 -7 -31 -25 -37 -39 -15
-31 -17 -113 -4 -113 5 0 11 -9 14 -20 3 -11 12 -20 21 -20 9 0 16 -4 16 -9 0
-13 55 -21 91 -14 17 3 45 21 63 39 34 35 46 41 46 24 0 -14 46 -60 60 -60 5
0 10 -4 10 -10 0 -5 -5 -10 -10 -10 -13 0 -50 -38 -67 -68 -25 -43 -7 -102 42
-140 31 -24 32 -44 3 -57 -18 -8 -29 -22 -45 -53 -1 -2 -20 15 -43 37 -35 34
-49 41 -82 41 -77 0 -128 -49 -128 -122 0 -40 5 -51 36 -82 32 -32 42 -36 86
-36 45 0 53 4 88 40 42 44 50 48 50 24 0 -17 14 -32 45 -50 22 -12 32 -34 16
-34 -30 0 -81 -69 -81 -110 0 -42 50 -103 94 -114 39 -10 89 2 120 29 25 21
28 31 28 84 0 51 -4 64 -26 85 -14 15 -32 26 -41 26 -8 0 -15 3 -15 6 0 9 28
34 38 34 25 0 45 42 46 95 0 52 -2 59 -37 91 -37 35 -46 54 -27 54 6 0 22 11
36 26 22 21 26 34 26 85 0 54 -3 63 -28 84 -16 14 -35 25 -41 25 -7 0 -13 5
-13 10 0 6 6 10 13 10 19 0 67 45 67 64 0 25 14 19 27 -11 15 -35 65 -58 119
-56 45 2 80 24 95 61 9 23 9 22 48 -19 36 -37 45 -41 88 -42 51 -1 103 24 103
49 0 8 5 14 10 14 14 0 12 86 -2 112 -20 34 -35 48 -52 48 -9 0 -16 5 -16 10
0 15 -53 12 -89 -6 -17 -9 -39 -27 -48 -40 -19 -29 -39 -31 -46 -5 -5 22 -75
61 -107 61 -34 0 -110 -55 -110 -80 0 -5 -4 -10 -10 -10 -5 0 -10 5 -10 11 0
6 -16 26 -34 43 -36 32 -36 43 -1 62 26 14 46 71 39 113 -6 37 -31 81 -46 81
-5 0 -16 7 -24 15 -14 13 -13 16 3 22 23 9 63 49 63 63 0 5 5 10 10 10 6 0 10
-5 10 -10 0 -17 47 -60 65 -60 8 0 15 -4 15 -10 0 -32 118 9 135 48 12 26 33
29 42 5 10 -26 23 -36 66 -51 54 -19 123 6 140 51 9 24 26 21 48 -7 33 -42
129 -76 129 -46 0 6 8 10 18 10 33 0 66 50 66 101 1 53 -16 92 -50 110 -25 13
-32 29 -13 29 19 0 57 51 64 86 8 48 -4 85 -40 119 -32 29 -36 55 -10 55 23 0
49 53 49 100 0 47 -26 100 -49 100 -26 0 -22 26 10 55 36 34 48 71 40 119 -7
35 -45 86 -64 86 -19 0 -12 16 13 29 34 18 51 57 50 110 0 51 -33 101 -66 101
-10 0 -18 5 -18 10 0 16 -52 10 -85 -9z m-47 -671 c8 -16 20 -30 28 -30 29 0
24 -28 -12 -64 -40 -40 -52 -44 -61 -18 -10 25 -29 42 -47 42 -9 0 -16 2 -16
4 0 6 84 95 90 96 3 0 11 -13 18 -30z m-8 -232 c0 -6 17 -26 37 -44 20 -19 31
-34 24 -34 -15 0 -55 -39 -64 -63 -6 -16 -9 -17 -22 -3 -8 8 -15 19 -15 25 0
5 -13 18 -30 28 -16 9 -30 20 -30 23 0 3 14 14 30 23 17 10 30 23 30 28 0 14
24 38 33 32 4 -2 7 -9 7 -15z m-740 -494 c0 -20 24 -44 44 -44 26 0 18 -26
-21 -65 l-37 -37 -27 31 c-15 17 -34 31 -43 31 -24 0 -20 8 27 55 46 47 57 53
57 29z"/>
<path d="M4341 5394 c-24 -25 -40 -48 -36 -52 4 -4 10 -1 12 6 3 6 11 12 18
12 8 0 22 14 32 30 20 34 38 40 28 10 -5 -14 -2 -20 9 -20 20 0 21 27 2 46 -8
8 -16 14 -18 13 -2 0 -23 -21 -47 -45z"/>
<path d="M7985 5196 c-61 -68 -61 -111 0 -171 61 -62 110 -61 173 2 21 22 25
34 25 85 -1 52 -4 62 -29 83 -24 21 -39 25 -89 24 -49 0 -64 -4 -80 -23z"/>
<path d="M4993 5082 c-65 -3 -73 -5 -73 -22 0 -11 -4 -20 -10 -20 -5 0 -10 6
-10 14 0 8 -7 17 -16 20 -26 10 -132 7 -139 -4 -3 -5 -1 -10 6 -10 10 0 10 -3
2 -11 -15 -15 -48 -7 -48 11 0 9 -11 16 -27 18 -19 2 -28 -2 -33 -17 -3 -12
-4 -25 -1 -29 3 -5 43 -7 89 -5 l84 5 8 -29 c4 -15 10 -22 12 -15 3 6 13 12
24 12 14 0 19 -7 19 -30 0 -16 -4 -30 -10 -30 -5 0 -10 -11 -10 -25 0 -14 -4
-25 -10 -25 -5 0 -10 16 -10 36 0 28 -3 34 -12 26 -7 -5 -38 -12 -68 -15 -103
-11 -175 -36 -157 -53 5 -5 11 -4 15 2 9 12 115 34 165 34 34 0 37 -2 37 -30
0 -28 2 -30 39 -30 35 0 39 3 45 30 5 26 10 30 38 30 46 0 152 -23 160 -34 4
-6 10 -7 14 -4 14 14 -26 37 -72 42 -27 3 -69 9 -94 13 -43 8 -45 10 -48 44
-4 43 7 47 112 44 l66 -3 0 29 c0 15 -3 29 -7 31 -5 2 -41 2 -80 0z"/>
<path d="M4600 4834 c0 -13 30 -34 49 -34 11 0 23 -4 26 -10 3 -5 37 -10 76
-10 48 0 69 -4 70 -12 1 -7 2 -42 3 -77 l1 -65 35 0 35 -1 3 68 c3 62 1 67
-18 67 -11 0 -20 5 -20 10 0 14 37 12 44 -2 5 -10 7 -10 12 0 3 7 26 12 57 12
74 0 165 37 142 58 -4 4 -10 1 -12 -5 -3 -7 -13 -13 -23 -13 -10 0 -20 -5 -22
-11 -6 -18 -331 -17 -390 1 -27 8 -48 18 -48 22 0 4 -4 8 -10 8 -5 0 -10 -3
-10 -6z m270 -169 c0 -8 -4 -15 -10 -15 -5 0 -10 7 -10 15 0 8 5 15 10 15 6 0
10 -7 10 -15z"/>
<path d="M3571 4725 c-30 -17 -71 -82 -71 -113 0 -28 17 -59 54 -94 l28 -28
-31 -29 c-17 -16 -31 -34 -31 -40 0 -20 -18 -11 -54 26 -31 33 -39 37 -86 37
-46 0 -55 -4 -86 -36 -27 -29 -34 -45 -34 -77 0 -67 24 -100 88 -121 34 -11
48 -11 63 -2 10 7 24 12 30 12 16 0 39 26 39 44 0 25 35 18 50 -10 21 -38 130
-75 130 -44 0 6 7 10 15 10 18 0 65 43 65 60 0 5 5 10 10 10 6 0 10 -5 10 -10
0 -17 47 -60 65 -60 8 0 15 -4 15 -10 0 -16 52 -10 85 9 37 22 75 76 75 108 0
29 -17 60 -54 95 l-28 28 28 28 c56 54 66 90 39 142 -33 64 -107 96 -157 69
-28 -15 -68 -55 -68 -69 0 -5 -4 -10 -10 -10 -5 0 -10 5 -10 10 0 14 -40 54
-68 69 -27 14 -71 13 -101 -4z m197 -174 c7 -17 26 -36 43 -43 16 -7 29 -15
29 -18 0 -3 -13 -11 -29 -18 -17 -7 -36 -26 -43 -43 -7 -16 -15 -29 -18 -29
-3 0 -11 13 -18 29 -7 17 -26 36 -43 43 -16 7 -29 15 -29 18 0 3 13 11 29 18
17 7 36 26 43 43 7 16 15 29 18 29 3 0 11 -13 18 -29z"/>
<path d="M5765 4695 c-61 -61 -61 -106 2 -172 18 -19 33 -23 81 -23 51 0 63 4
86 26 14 15 26 33 26 40 0 8 5 14 10 14 6 0 10 -6 10 -14 0 -7 12 -25 26 -40
23 -22 35 -26 86 -26 48 0 63 4 81 23 53 56 59 92 24 150 -36 59 -99 83 -149
56 -28 -15 -68 -55 -68 -69 0 -5 -4 -10 -10 -10 -5 0 -10 5 -10 10 0 13 -38
50 -68 68 -43 24 -79 15 -127 -33z"/>
<path d="M6785 4727 c-45 -27 -65 -61 -65 -110 0 -88 28 -116 115 -116 56 -1
62 2 89 33 28 33 56 38 56 10 0 -7 14 -21 30 -31 36 -21 37 -26 5 -43 -14 -7
-32 -27 -40 -43 -17 -34 -20 -107 -5 -107 6 0 10 -7 10 -16 0 -20 24 -44 44
-44 24 0 19 -14 -13 -41 -36 -31 -51 -60 -51 -99 0 -39 15 -68 51 -99 16 -13
29 -27 29 -30 0 -3 -13 -12 -30 -19 -18 -8 -30 -21 -30 -33 0 -10 -4 -19 -10
-19 -5 0 -10 -22 -10 -50 0 -27 5 -50 10 -50 6 0 10 -7 10 -15 0 -9 8 -19 18
-22 43 -17 44 -30 2 -73 -35 -35 -40 -47 -40 -85 0 -25 5 -45 10 -45 6 0 10
-9 10 -19 0 -12 12 -25 30 -33 17 -7 30 -16 30 -20 0 -5 18 -8 40 -8 22 0 40
5 40 10 0 6 7 10 16 10 18 0 36 16 53 48 12 22 12 22 51 -20 42 -43 51 -68 24
-68 -21 0 -37 -18 -52 -62 -11 -31 -11 -45 0 -75 14 -41 22 -51 56 -70 25 -15
112 -18 112 -4 0 5 8 11 18 13 10 3 28 26 40 51 19 41 20 49 8 79 -8 18 -28
45 -45 61 -32 28 -40 47 -20 47 6 0 24 14 40 31 l29 31 29 -31 c16 -17 36 -31
45 -31 9 0 16 -4 16 -10 0 -5 14 -10 30 -10 34 0 110 46 110 66 0 8 5 14 10
14 14 0 13 66 -1 92 -27 50 -59 70 -109 71 -60 1 -94 -16 -114 -57 -13 -28
-16 -29 -22 -11 -9 24 -54 65 -71 65 -7 0 -13 5 -13 10 0 6 6 10 13 10 20 0
61 43 74 78 15 42 0 86 -44 127 -32 30 -32 46 -3 57 9 3 26 26 39 50 l23 45
-23 48 c-12 26 -31 50 -41 53 -10 2 -18 8 -18 13 0 13 -82 11 -113 -3 -14 -7
-32 -24 -39 -38 -7 -14 -13 -27 -14 -28 -3 -5 -94 86 -94 93 0 3 7 5 16 5 18
0 36 16 52 47 15 27 16 113 2 113 -5 0 -10 6 -10 14 0 8 -13 23 -30 33 -16 9
-30 20 -30 23 0 3 14 14 30 23 17 10 30 25 30 33 0 8 5 14 10 14 14 0 13 86
-2 113 -16 31 -34 47 -52 47 -9 0 -16 5 -16 10 0 6 -18 10 -40 10 -22 0 -40
-4 -40 -10 0 -5 -7 -10 -16 -10 -20 0 -44 -24 -44 -44 0 -27 -25 -18 -69 24
-44 43 -85 51 -126 27z m435 -663 c0 -20 24 -44 44 -44 26 0 18 -25 -23 -68
-28 -30 -42 -37 -50 -29 -6 6 -11 15 -11 20 0 14 -27 37 -44 37 -24 0 -20 10
27 56 46 46 57 52 57 28z m0 -239 c0 -18 43 -65 60 -65 5 0 10 -4 10 -10 0 -5
-5 -10 -10 -10 -17 0 -60 -47 -60 -65 0 -22 -5 -19 -54 31 -47 48 -47 60 -3
77 9 3 17 11 17 17 0 13 22 39 33 40 4 0 7 -7 7 -15z"/>
<path d="M870 4483 c-51 -10 -89 -90 -73 -152 9 -34 43 -71 65 -71 10 0 18 -3
18 -6 0 -9 -28 -34 -38 -34 -20 0 -46 -56 -46 -100 0 -47 26 -100 49 -100 7 0
16 -7 19 -16 8 -21 8 -24 -4 -24 -6 0 -23 -12 -37 -26 -22 -22 -27 -36 -27
-75 0 -87 35 -122 121 -121 42 0 57 5 78 26 14 14 25 32 25 41 0 8 5 15 10 15
30 0 -4 96 -46 129 -28 22 -32 51 -6 51 19 0 62 68 62 99 0 30 -30 79 -61 101
-35 26 -36 32 -7 45 12 6 33 25 45 44 23 34 31 91 13 91 -5 0 -10 7 -10 15 0
45 -82 82 -150 68z"/>
<path d="M2360 4484 c-44 -16 -61 -31 -79 -69 -17 -37 -18 -48 -8 -76 14 -40
50 -79 72 -79 8 0 15 -4 15 -10 0 -15 43 -12 81 7 39 19 58 41 59 66 0 9 5 17
10 17 6 0 10 11 10 24 0 14 -4 28 -10 31 -5 3 -10 13 -10 21 0 41 -92 85 -140
68z"/>
<path d="M2846 4483 c-40 -11 -86 -73 -86 -117 0 -35 35 -91 66 -105 21 -9 24
-14 14 -26 -7 -8 -18 -15 -25 -15 -8 0 -19 -13 -27 -30 -14 -33 -35 -39 -45
-12 -14 37 -56 62 -106 62 -41 0 -52 -5 -82 -35 -31 -31 -35 -40 -35 -87 0
-49 3 -55 40 -87 43 -38 49 -51 24 -51 -17 0 -54 -36 -54 -52 0 -16 -23 -7
-42 17 -38 49 -97 67 -140 43 -89 -51 -106 -144 -38 -205 25 -23 47 -28 109
-24 36 3 81 39 81 66 0 8 3 15 6 15 9 0 34 -28 34 -39 0 -6 8 -15 18 -20 47
-27 47 -27 3 -68 -35 -35 -41 -46 -41 -82 0 -59 30 -111 64 -111 9 0 16 -3 16
-7 0 -7 -88 -93 -95 -93 -3 0 -5 9 -5 19 0 12 -12 25 -30 33 -16 7 -30 16 -30
20 0 5 -21 8 -47 8 -41 0 -51 -5 -85 -39 l-38 -39 -38 39 c-33 33 -45 39 -81
39 -56 0 -111 -32 -111 -64 0 -9 -3 -16 -6 -16 -9 0 -98 90 -93 93 2 1 15 8
29 15 32 16 50 55 50 105 0 31 -7 46 -36 75 -31 31 -42 36 -83 36 -40 0 -53
-6 -84 -34 -33 -30 -37 -38 -37 -84 0 -39 6 -57 24 -78 13 -16 31 -28 40 -28
9 0 16 -3 16 -7 0 -7 -88 -93 -95 -93 -3 0 -5 9 -5 19 0 12 -12 25 -30 33 -16
7 -30 16 -30 20 0 16 -90 8 -111 -9 -35 -29 -47 -42 -51 -54 -2 -7 -25 8 -51
35 -40 39 -44 48 -30 53 42 16 65 53 66 103 0 27 -5 60 -12 72 -28 54 -141 69
-184 26 -12 -13 -26 -31 -30 -41 -6 -16 -12 -12 -46 24 -36 37 -45 41 -88 42
-51 1 -103 -24 -103 -49 0 -8 -4 -14 -10 -14 -14 0 -12 -86 3 -112 19 -34 34
-48 51 -48 24 0 20 -9 -28 -56 -47 -47 -56 -52 -56 -30 0 29 -64 66 -113 66
-26 0 -47 -4 -47 -10 0 -5 -6 -10 -14 -10 -24 0 -50 -52 -50 -100 0 -48 26
-100 50 -100 8 0 14 -4 14 -10 0 -5 20 -10 45 -10 52 0 115 34 115 63 0 24 5
22 51 -23 37 -35 47 -40 89 -40 43 0 53 4 88 40 43 44 52 48 52 24 0 -18 17
-37 43 -47 25 -9 21 -31 -9 -47 -26 -14 -54 -67 -54 -101 0 -24 18 -55 49 -88
18 -19 34 -25 71 -25 86 -2 124 37 123 124 -1 38 -6 54 -26 74 -15 14 -33 26
-42 26 -8 0 -15 2 -15 5 0 6 92 96 95 93 21 -38 38 -58 50 -58 8 0 15 -4 15
-10 0 -14 86 -12 112 3 34 19 48 34 48 51 0 23 5 20 51 -24 37 -35 47 -40 89
-40 42 0 52 5 89 40 36 35 42 38 48 23 9 -23 23 -37 46 -46 26 -10 21 -31 -13
-50 -16 -10 -30 -25 -30 -33 0 -8 -4 -14 -10 -14 -5 0 -10 -19 -10 -43 0 -35
6 -50 33 -78 17 -20 43 -38 57 -42 41 -10 98 4 125 31 21 21 25 34 25 84 0 49
-4 63 -25 83 -13 14 -31 25 -40 25 -22 0 -19 5 32 55 48 47 48 47 74 3 5 -10
16 -18 24 -18 8 0 15 -4 15 -10 0 -14 86 -12 112 3 34 19 48 34 48 51 0 24 8
20 50 -24 35 -36 43 -40 88 -40 46 0 54 4 90 40 43 44 52 48 52 24 0 -32 55
-64 111 -64 33 0 47 6 75 34 30 30 34 40 34 86 0 46 -4 56 -35 87 -36 36 -44
53 -24 53 6 0 24 14 40 31 l29 31 28 -28 c35 -37 66 -54 94 -54 33 0 85 35
108 72 21 35 27 88 10 88 -5 0 -10 7 -10 15 0 9 -11 27 -25 41 -21 21 -36 26
-78 26 -61 1 -92 -15 -110 -54 -15 -35 -22 -35 -38 1 -18 40 -49 55 -109 54
-44 -1 -54 -5 -83 -37 l-34 -36 -42 40 c-37 36 -40 42 -27 55 8 8 19 15 25 15
16 0 41 61 41 102 0 21 -4 38 -10 38 -5 0 -10 7 -10 16 0 20 -24 44 -44 44
-24 0 -19 12 19 47 19 18 35 37 35 43 0 5 7 10 15 10 8 0 15 -7 15 -16 0 -17
14 -32 48 -51 26 -15 112 -17 112 -3 0 6 7 10 15 10 9 0 19 8 22 18 4 9 13 23
21 31 15 15 17 14 43 -31 5 -10 16 -18 24 -18 8 0 15 -4 15 -10 0 -14 81 -12
112 2 28 14 68 77 68 108 0 31 -40 94 -68 108 -30 14 -112 16 -112 3 0 -5 -9
-13 -20 -16 -11 -3 -20 -11 -20 -16 0 -6 -7 -17 -15 -25 -12 -13 -20 -9 -60
31 -50 50 -52 55 -30 55 9 0 27 11 40 25 41 40 31 154 -17 184 -21 13 -86 21
-112 14z m-1546 -917 c0 -8 14 -23 30 -33 34 -19 39 -40 13 -50 -26 -10 -43
-29 -43 -47 0 -9 -3 -16 -6 -16 -9 0 -98 90 -93 93 2 1 16 9 31 16 14 7 29 22
31 32 6 22 37 26 37 5z m1480 0 c0 -8 14 -23 30 -33 34 -19 39 -40 13 -50 -26
-10 -43 -29 -43 -47 0 -22 -29 -20 -37 2 -4 9 -19 28 -35 41 -15 13 -28 27
-28 30 0 3 14 12 30 19 18 8 30 21 30 33 0 12 7 19 20 19 11 0 20 -6 20 -14z"/>
<path d="M6546 4483 c-26 -7 -66 -48 -66 -68 0 -8 -4 -15 -10 -15 -36 0 17
-126 57 -137 28 -6 26 -24 -4 -38 -24 -10 -63 -76 -63 -105 0 -27 42 -100 57
-100 26 0 24 -29 -4 -57 -15 -15 -34 -38 -40 -50 -15 -27 -17 -73 -3 -73 6 0
10 -7 10 -15 0 -18 43 -65 60 -65 5 0 10 -4 10 -10 0 -5 -5 -10 -10 -10 -17 0
-60 -47 -60 -65 0 -8 -4 -15 -10 -15 -15 0 -12 -47 5 -80 8 -15 26 -38 41 -49
27 -21 27 -51 1 -51 -7 0 -20 -12 -27 -27 -8 -16 -15 -29 -16 -31 -1 -2 -21
15 -44 37 -38 36 -48 41 -90 41 -43 0 -53 -4 -88 -40 -43 -44 -52 -48 -52 -24
0 32 -55 64 -111 64 -32 0 -48 -7 -77 -34 -33 -31 -36 -39 -35 -87 1 -46 5
-56 36 -86 28 -26 44 -33 76 -33 56 0 111 32 111 64 0 24 9 20 52 -24 36 -36
44 -40 90 -40 45 0 53 4 88 40 42 44 50 48 50 24 0 -32 55 -64 111 -64 36 0
48 6 81 40 l39 40 38 -40 c33 -34 44 -40 80 -40 59 0 111 30 111 64 0 9 5 16
10 16 6 0 10 18 10 40 0 22 -4 40 -10 40 -5 0 -10 8 -10 18 0 27 -63 62 -111
62 -36 0 -48 -6 -80 -40 l-38 -40 -40 42 c-41 41 -50 58 -31 58 6 0 23 12 37
26 49 50 32 159 -29 186 -15 7 -28 15 -28 18 0 3 13 11 28 18 38 16 57 55 56
112 0 37 -6 53 -27 74 -14 14 -31 26 -38 26 -6 0 -8 7 -5 16 3 9 6 18 6 20 0
2 6 4 14 4 25 0 50 52 50 104 0 44 -4 52 -42 87 -46 41 -50 49 -27 49 9 0 28
12 42 26 45 45 35 149 -17 182 -23 14 -87 23 -114 15z"/>
<path d="M5782 4226 c-12 -6 -28 -23 -35 -38 -6 -16 -15 -28 -19 -28 -5 0 -8
-18 -8 -40 0 -22 5 -40 10 -40 6 0 10 -7 10 -16 0 -18 23 -44 40 -44 25 0 18
-30 -16 -64 -40 -40 -52 -44 -61 -18 -10 25 -29 42 -47 42 -9 0 -16 5 -16 10
0 6 -18 10 -40 10 -22 0 -40 -3 -40 -8 0 -4 -12 -13 -27 -19 -16 -7 -34 -25
-40 -40 -15 -32 -17 -113 -3 -113 6 0 10 -7 10 -15 0 -9 8 -19 18 -22 9 -4 20
-11 24 -17 8 -12 108 -12 117 1 3 5 14 12 24 16 9 3 17 13 17 21 0 7 7 17 16
20 21 8 24 8 24 -4 0 -14 46 -60 60 -60 5 0 10 -4 10 -10 0 -5 -5 -10 -10 -10
-13 0 -50 -38 -67 -68 -28 -47 -1 -115 59 -152 53 -32 91 -25 146 28 19 18 24
34 25 72 1 59 -17 96 -55 112 -15 7 -28 15 -28 18 0 3 13 11 28 18 38 16 56
53 55 112 -1 38 -6 54 -26 74 -15 14 -31 26 -38 26 -6 0 -8 7 -5 16 3 9 6 18
6 20 0 2 6 4 14 4 25 0 50 52 49 104 0 26 -5 51 -10 55 -5 3 -12 14 -16 24 -3
9 -13 17 -22 17 -8 0 -15 5 -15 10 0 13 -89 11 -118 -4z"/>
<path d="M3572 3980 c-60 -37 -87 -105 -59 -152 17 -30 54 -68 67 -68 5 0 10
-4 10 -10 0 -5 -5 -10 -10 -10 -13 0 -50 -38 -67 -68 -25 -43 -7 -102 42 -140
29 -23 32 -40 8 -49 -25 -10 -43 -29 -43 -47 0 -8 -4 -18 -10 -21 -5 -3 -10
-22 -10 -41 0 -19 5 -34 10 -34 6 0 10 -7 10 -16 0 -32 55 -64 111 -64 36 0
48 6 82 41 41 42 42 42 68 -3 5 -10 16 -18 24 -18 8 0 15 -4 15 -10 0 -14 86
-12 112 3 34 19 48 34 48 51 0 9 3 16 7 16 7 0 96 -91 91 -94 -2 -1 -14 -7
-28 -14 -14 -7 -31 -25 -37 -39 -15 -32 -17 -113 -3 -113 6 0 10 -7 10 -15 0
-8 8 -19 18 -24 45 -26 46 -28 31 -43 -8 -8 -22 -17 -31 -21 -10 -3 -18 -13
-18 -21 0 -7 -7 -17 -16 -20 -21 -8 -24 -8 -24 4 0 6 -11 22 -25 35 -19 20
-34 25 -74 25 -92 0 -125 -32 -124 -120 1 -38 6 -54 25 -72 65 -62 110 -64
169 -8 47 45 57 48 66 23 10 -26 29 -43 47 -43 22 0 20 -29 -1 -37 -40 -15
-63 -57 -63 -111 0 -33 7 -47 40 -81 44 -46 47 -51 24 -51 -20 0 -44 -24 -44
-44 0 -25 -29 -19 -55 12 -29 35 -100 61 -117 44 -7 -7 -18 -12 -25 -12 -8 0
-25 -11 -39 -25 -21 -21 -26 -36 -26 -78 -1 -58 14 -89 49 -108 29 -16 29 -22
-1 -39 -14 -7 -30 -26 -37 -41 -12 -30 -29 -39 -29 -15 0 7 -12 25 -26 40 -23
22 -35 26 -86 26 -49 0 -63 -4 -83 -25 -14 -13 -25 -31 -25 -40 0 -8 -4 -15
-10 -15 -5 0 -10 -14 -10 -30 0 -34 46 -110 66 -110 21 0 17 -31 -5 -37 -10
-2 -25 -17 -32 -31 -7 -15 -15 -29 -16 -31 -2 -2 -21 14 -44 37 -36 38 -45 42
-89 42 -44 0 -53 -4 -89 -42 -23 -23 -42 -39 -44 -37 -1 2 -8 15 -15 29 -16
31 -55 50 -104 50 -29 0 -47 -8 -72 -31 -56 -50 -57 -126 -4 -180 25 -25 37
-29 82 -29 44 0 58 5 80 26 14 15 26 33 26 40 0 21 7 17 55 -31 49 -49 53 -55
29 -55 -17 0 -32 -14 -51 -48 -15 -26 -17 -112 -3 -112 6 0 10 -7 10 -15 0
-12 12 -22 58 -51 2 -1 -15 -19 -38 -41 -34 -34 -40 -46 -40 -82 0 -59 30
-111 64 -111 9 0 16 -4 16 -10 0 -5 15 -10 34 -10 19 0 38 5 41 10 3 6 13 10
21 10 32 0 64 55 64 111 0 36 -6 48 -42 82 -28 27 -38 42 -29 45 7 2 21 13 30
24 39 48 61 62 61 38 0 -6 11 -22 26 -36 21 -22 34 -26 85 -26 54 0 63 3 84
28 14 16 25 35 25 42 0 6 5 12 10 12 6 0 10 -6 10 -12 0 -7 11 -26 25 -41 21
-26 30 -29 84 -29 51 0 64 4 85 26 15 14 26 30 26 37 0 6 7 8 16 5 9 -3 18 -6
20 -6 2 0 4 -7 4 -15 0 -8 12 -22 28 -32 15 -9 29 -18 31 -19 6 -5 -23 -30
-41 -37 -10 -3 -18 -13 -18 -22 0 -8 -4 -15 -10 -15 -14 0 -12 -86 3 -112 19
-34 34 -48 51 -48 9 0 16 -4 16 -10 0 -5 18 -10 40 -10 22 0 40 5 40 10 0 6 7
10 16 10 32 0 64 55 64 111 0 36 -6 48 -41 82 -44 41 -44 41 4 68 9 5 17 16
17 24 0 8 5 15 10 15 14 0 12 81 -2 113 -7 15 -25 33 -40 40 -16 6 -28 15 -28
19 0 5 -18 8 -40 8 -22 0 -40 -4 -40 -10 0 -5 -7 -10 -16 -10 -20 0 -44 -24
-44 -44 0 -24 -30 -19 -52 9 -38 49 -97 67 -140 43 -30 -18 -68 -55 -68 -68 0
-5 -4 -10 -10 -10 -5 0 -10 5 -10 10 0 14 -46 60 -60 60 -18 0 -11 13 27 52
32 33 37 44 37 87 0 43 -4 53 -37 86 l-38 38 36 32 c19 18 35 38 35 44 0 6 5
11 10 11 6 0 10 -5 10 -11 0 -6 17 -27 37 -45 29 -27 45 -34 77 -34 35 0 46 6
83 46 34 35 43 53 43 80 0 18 -4 34 -10 34 -5 0 -10 7 -10 16 0 9 -14 29 -30
44 l-31 29 39 40 c38 39 53 41 64 10 4 -9 27 -26 52 -38 l46 -21 45 21 c24 11
47 29 50 40 4 10 11 19 16 19 13 0 11 82 -3 113 -7 14 -24 32 -38 39 -14 7
-27 13 -28 14 -5 3 86 94 93 94 3 0 5 -7 5 -16 0 -18 16 -36 47 -52 27 -15
113 -16 113 -2 0 6 6 10 14 10 25 0 50 52 50 103 0 43 -4 53 -37 84 l-38 35
41 39 41 40 27 -28 c66 -68 112 -71 176 -10 36 34 46 50 46 76 0 40 -15 68
-54 103 l-30 26 30 29 c38 35 54 64 54 99 0 33 -41 89 -80 109 -33 17 -80 20
-80 5 0 -5 -7 -10 -16 -10 -9 0 -29 -14 -45 -31 l-29 -31 -29 31 c-16 17 -36
31 -45 31 -9 0 -16 5 -16 10 0 34 -120 -16 -139 -57 -10 -21 -14 -23 -26 -13
-8 7 -15 18 -15 25 0 6 -12 18 -27 25 -16 8 -29 15 -31 16 -2 1 15 21 37 44
36 38 41 48 41 90 0 42 -5 53 -36 84 -31 31 -42 36 -84 36 -43 0 -53 -4 -88
-40 -43 -44 -52 -48 -52 -22 0 27 -63 62 -111 62 -36 0 -48 -6 -81 -40 l-38
-41 -40 42 c-40 43 -49 59 -30 59 6 0 22 12 37 26 20 20 25 36 26 74 1 59 -17
96 -55 112 -35 16 -35 20 1 36 17 7 36 26 43 43 16 36 20 36 36 1 16 -38 53
-56 112 -55 38 1 54 6 72 25 53 55 60 93 28 146 -37 60 -105 87 -152 60 -30
-18 -68 -55 -68 -68 0 -5 -4 -10 -10 -10 -5 0 -10 5 -10 10 0 13 -38 50 -68
68 -31 17 -62 15 -100 -8z m688 -895 c0 -18 43 -65 60 -65 5 0 10 -4 10 -10 0
-5 -5 -10 -10 -10 -17 0 -60 -47 -60 -65 0 -22 -5 -20 -54 30 l-46 45 43 44
c46 48 57 54 57 31z m240 -7 c0 -14 51 -58 68 -58 23 0 12 -18 -18 -32 -17 -7
-36 -25 -43 -40 -6 -16 -14 -28 -17 -28 -3 0 -11 12 -17 28 -7 15 -26 33 -43
40 -38 17 -38 24 -1 40 17 7 36 26 43 42 12 27 28 32 28 8z m-240 -253 c0 -9
13 -24 30 -33 32 -18 41 -52 14 -52 -8 0 -22 -6 -30 -14 -8 -8 -14 -22 -14
-30 0 -24 -14 -19 -41 12 -13 16 -32 31 -41 35 -27 10 -22 31 11 45 16 7 31
22 34 32 6 24 37 27 37 5z m-740 -981 c0 -9 14 -28 31 -43 l31 -27 -37 -37
c-43 -43 -56 -46 -70 -15 -8 17 -24 31 -53 44 -5 3 83 94 91 94 4 0 7 -7 7
-16z"/>
<path d="M4310 3978 c-19 -13 -41 -36 -51 -53 -19 -33 -25 -85 -9 -85 6 0 10
-7 10 -15 0 -18 43 -65 60 -65 5 0 10 -4 10 -10 0 -5 -5 -10 -10 -10 -17 0
-60 -47 -60 -65 0 -8 -4 -15 -10 -15 -5 0 -10 -13 -10 -29 0 -17 5 -33 10 -36
6 -3 10 -15 10 -25 0 -22 75 -70 109 -70 27 0 58 18 93 54 l28 28 28 -28 c58
-60 95 -67 155 -31 59 36 83 99 56 149 -15 28 -55 68 -69 68 -5 0 -10 5 -10
10 0 6 5 10 10 10 14 0 54 40 69 68 27 50 -5 124 -69 157 -52 27 -88 17 -142
-39 l-28 -28 -28 28 c-57 59 -99 68 -152 32z m198 -167 c7 -17 26 -36 43 -43
16 -7 29 -15 29 -18 0 -3 -13 -11 -29 -18 -17 -7 -36 -26 -43 -43 -7 -16 -15
-29 -18 -29 -3 0 -11 13 -18 29 -7 17 -26 36 -43 43 -36 16 -36 22 1 38 16 7
35 25 42 41 16 36 20 36 36 0z"/>
<path d="M5307 3735 c-21 -7 -45 -21 -52 -32 -18 -25 -27 -76 -19 -109 8 -30
46 -74 64 -74 19 0 10 -19 -27 -54 -33 -31 -37 -39 -37 -86 0 -49 3 -55 42
-91 46 -41 50 -49 27 -49 -9 0 -28 -12 -42 -26 -48 -48 -34 -154 25 -185 14
-8 46 -14 72 -13 37 0 53 6 74 27 14 14 26 33 26 42 0 8 5 15 10 15 6 0 10 13
10 29 0 17 -4 33 -10 36 -5 3 -10 15 -10 25 0 10 -13 27 -30 37 -34 19 -39 40
-12 50 25 10 42 29 42 47 0 23 5 20 51 -24 37 -35 47 -40 89 -40 42 0 53 5 84
36 31 31 36 42 36 84 0 42 -5 53 -36 84 -31 31 -42 36 -84 36 -43 0 -53 -4
-88 -40 -43 -44 -52 -48 -52 -24 0 18 -17 37 -42 47 -26 9 -22 31 8 47 38 21
75 130 44 130 -5 0 -10 7 -10 15 0 25 -43 62 -81 68 -19 3 -51 0 -72 -8z"/>
<path d="M4777 3466 c-34 -31 -37 -38 -37 -86 0 -48 3 -55 37 -86 31 -28 45
-34 83 -34 38 0 52 6 83 34 33 30 37 39 37 82 0 111 -121 165 -203 90z"/>
<path d="M8738 3479 c-46 -34 -75 -117 -48 -134 6 -3 10 -14 10 -23 0 -9 17
-28 37 -41 l36 -23 -32 -27 c-18 -15 -39 -40 -47 -55 -16 -32 -19 -76 -4 -76
6 0 10 -7 10 -15 0 -9 12 -28 27 -43 23 -23 35 -27 84 -26 48 1 61 5 84 29 24
23 28 36 29 84 1 48 -3 61 -24 82 -14 14 -33 28 -43 32 -16 6 -17 9 -3 22 8 8
19 15 24 15 20 0 46 56 46 100 0 48 -26 100 -50 100 -8 0 -14 5 -14 10 0 19
-93 11 -122 -11z"/>
<path d="M7023 3238 c-28 -13 -43 -27 -43 -39 0 -10 -4 -19 -10 -19 -5 0 -10
-21 -10 -47 0 -41 5 -51 40 -85 l40 -39 -42 -40 -41 -39 -33 35 c-28 31 -37
35 -82 35 -91 0 -122 -31 -122 -122 0 -39 5 -54 25 -73 13 -14 29 -25 35 -25
20 0 9 -21 -30 -60 l-40 -39 -40 39 c-35 35 -47 40 -85 40 -25 0 -45 -4 -45
-10 0 -5 -9 -10 -19 -10 -19 0 -61 -72 -61 -104 0 -27 43 -94 67 -105 30 -14
113 -14 113 -1 0 6 7 10 15 10 8 0 19 8 24 18 26 45 28 46 45 29 9 -8 16 -21
16 -27 0 -6 8 -14 18 -17 18 -7 42 -28 42 -37 0 -3 -7 -6 -16 -6 -32 0 -64
-51 -64 -102 0 -60 16 -95 52 -110 35 -16 35 -20 1 -35 -16 -7 -34 -26 -41
-43 -14 -31 -32 -40 -32 -16 0 7 -12 25 -26 40 -23 22 -35 26 -86 26 -49 0
-63 -4 -83 -25 -14 -13 -25 -31 -25 -40 0 -8 -4 -15 -10 -15 -15 0 -12 -47 5
-80 8 -15 26 -38 41 -49 27 -21 27 -51 0 -51 -8 0 -20 -13 -28 -30 -7 -16 -15
-30 -19 -30 -3 0 -21 18 -40 40 -31 36 -38 40 -86 40 -47 0 -55 -3 -92 -42
-23 -23 -42 -39 -44 -37 -1 2 -8 15 -15 29 -16 32 -55 50 -106 50 -33 0 -45
-6 -78 -41 -40 -42 -54 -41 -71 4 -3 9 -13 17 -22 17 -8 0 -15 5 -15 10 0 14
-81 12 -113 -2 -14 -7 -32 -24 -39 -38 -7 -14 -14 -27 -15 -29 -1 -2 -24 17
-49 42 -41 41 -44 48 -28 54 40 15 64 59 64 118 0 25 -4 45 -10 45 -5 0 -10 6
-10 14 0 25 -47 46 -101 46 -48 0 -55 -3 -90 -40 -42 -44 -49 -48 -49 -25 0 9
-11 27 -25 40 -20 21 -34 25 -83 25 -50 0 -63 -4 -85 -25 -50 -51 -45 -130 12
-182 28 -27 43 -33 78 -33 24 0 43 3 43 8 0 4 10 12 23 17 12 6 26 20 32 33
12 26 33 29 42 5 9 -23 23 -37 47 -46 17 -7 14 -12 -23 -48 -37 -37 -41 -45
-41 -91 0 -45 4 -53 41 -89 23 -22 40 -41 38 -42 -2 -2 -15 -8 -29 -15 -14 -7
-31 -25 -37 -39 -15 -32 -17 -113 -3 -113 6 0 10 -7 10 -15 0 -8 8 -19 18 -24
46 -27 46 -27 -2 -75 -51 -51 -56 -53 -56 -31 0 9 -11 27 -25 41 -48 48 -161
31 -187 -27 -16 -36 -20 -36 -36 -1 -17 38 -53 56 -112 55 -44 -1 -54 -5 -84
-37 l-33 -37 -38 38 c-32 32 -43 37 -85 37 -42 0 -53 -5 -84 -36 -30 -30 -36
-43 -36 -78 0 -58 30 -110 64 -110 9 0 16 -3 16 -7 0 -7 -91 -96 -94 -91 -1 2
-8 15 -16 30 -7 16 -22 28 -32 28 -10 0 -18 5 -18 10 0 6 -21 10 -47 10 -41 0
-50 -4 -85 -40 l-38 -41 -38 41 c-33 34 -45 40 -81 40 -67 0 -100 -24 -121
-88 -11 -34 -11 -48 -2 -63 7 -10 12 -24 12 -30 0 -13 20 -33 43 -42 25 -9 21
-25 -13 -54 -16 -13 -30 -31 -30 -39 0 -23 -17 -16 -40 15 -22 31 -71 61 -101
61 -30 0 -94 -40 -107 -68 -14 -31 -16 -112 -2 -112 6 0 10 -6 10 -14 0 -24
52 -50 100 -50 44 0 100 26 100 46 0 5 7 16 15 24 13 14 16 13 24 -8 27 -69
133 -87 196 -32 25 21 28 31 29 82 1 49 -3 62 -24 83 -14 14 -33 28 -43 32
-16 6 -17 9 -3 22 8 8 19 15 25 15 5 0 18 14 28 30 9 17 20 30 23 30 3 0 14
-14 23 -30 10 -17 25 -30 33 -30 8 0 14 -4 14 -10 0 -14 86 -12 112 2 34 20
48 35 48 52 0 23 4 21 50 -24 36 -36 46 -40 90 -40 44 0 54 4 90 40 46 45 50
47 50 24 0 -18 17 -37 43 -47 25 -9 22 -19 -23 -66 -55 -58 -54 -108 4 -166
27 -27 67 -38 110 -30 35 7 86 45 86 64 0 19 16 12 29 -13 18 -34 57 -51 110
-50 51 0 101 33 101 66 0 10 3 18 6 18 9 0 34 -28 34 -38 0 -20 56 -46 100
-46 48 0 100 26 100 50 0 8 5 14 10 14 6 0 10 23 10 50 0 28 -4 50 -10 50 -5
0 -10 8 -10 18 0 10 -12 25 -27 32 -16 8 -29 15 -31 16 -2 1 15 21 37 43 37
37 41 47 41 91 0 43 -4 53 -40 88 -44 43 -48 52 -24 52 18 0 37 17 47 43 9 25
31 21 47 -9 14 -25 67 -54 100 -54 37 0 110 53 110 80 0 5 5 10 10 10 6 0 10
-5 10 -10 0 -13 38 -50 68 -67 48 -28 117 -3 150 55 34 60 28 94 -26 150 -18
19 -34 24 -72 25 -60 1 -91 -15 -109 -54 -16 -37 -26 -37 -42 0 -18 39 -49 55
-109 54 -38 -1 -54 -6 -74 -26 -14 -15 -26 -31 -26 -37 0 -5 -4 -10 -8 -10
-10 0 -96 80 -91 84 2 1 16 10 32 19 15 10 27 24 27 32 0 8 5 15 10 15 6 0 10
23 10 50 0 28 -4 50 -10 50 -5 0 -10 7 -10 16 0 20 -24 44 -44 44 -23 0 -21 3
28 54 47 50 56 54 56 30 0 -9 12 -27 28 -40 38 -33 118 -34 154 -1 14 13 29
31 35 42 10 16 14 14 48 -24 35 -38 41 -41 89 -41 39 0 57 5 79 24 15 13 27
31 27 40 0 25 13 19 51 -24 32 -37 38 -40 87 -40 50 0 56 3 92 40 41 43 50 48
50 26 0 -7 12 -25 26 -40 22 -21 36 -26 79 -26 54 0 87 19 112 65 10 17 12 17
27 3 9 -9 16 -21 16 -26 0 -5 11 -17 25 -26 26 -17 33 -36 14 -36 -7 0 -22
-12 -35 -27 -38 -45 -32 -137 13 -181 8 -9 37 -14 73 -15 55 0 62 2 92 35 32
35 58 40 58 13 0 -8 8 -19 18 -24 45 -27 45 -27 3 -70 -34 -35 -41 -49 -41
-82 0 -54 32 -109 64 -109 8 0 18 -4 21 -10 3 -5 22 -10 41 -10 19 0 34 5 34
10 0 6 7 10 16 10 17 0 31 12 56 49 l16 23 16 -31 c16 -30 69 -61 106 -61 45
0 98 44 117 99 10 28 9 39 -8 76 -24 51 -55 69 -119 68 -38 -1 -54 -6 -74 -26
-14 -15 -26 -33 -26 -42 0 -8 -2 -15 -5 -15 -6 0 -97 91 -93 94 2 1 15 10 31
19 15 10 27 24 27 32 0 8 5 15 10 15 14 0 12 81 -2 113 -7 14 -24 32 -38 39
-14 7 -27 13 -28 14 -5 3 86 94 93 94 3 0 5 -7 5 -16 0 -9 12 -27 28 -40 21
-19 39 -24 79 -24 44 0 56 4 82 31 17 17 31 35 31 40 0 18 16 8 33 -21 10 -16
24 -30 31 -30 8 0 17 -7 20 -16 8 -21 8 -24 -4 -24 -6 0 -22 -11 -35 -25 -21
-20 -25 -34 -25 -82 0 -47 5 -63 25 -86 21 -26 30 -29 85 -29 54 0 63 3 89 31
31 33 61 41 61 16 0 -8 12 -22 28 -32 15 -9 29 -18 31 -19 2 -2 -15 -20 -38
-42 -35 -34 -41 -45 -41 -81 0 -59 30 -111 64 -111 8 0 18 -4 21 -10 3 -5 22
-10 41 -10 19 0 34 5 34 10 0 6 7 10 16 10 9 0 27 12 40 28 19 21 24 39 24 80
0 28 -4 52 -10 52 -5 0 -10 6 -10 14 0 8 -13 23 -30 33 -32 19 -39 33 -16 33
28 0 66 64 66 109 0 59 -30 111 -64 111 -24 0 -20 6 29 55 49 50 55 53 55 29
0 -9 12 -27 28 -40 39 -34 113 -33 159 2 18 14 33 32 33 40 0 22 15 17 30 -11
7 -14 17 -25 21 -25 11 0 39 -30 39 -41 0 -5 -5 -9 -10 -9 -6 0 -22 -11 -36
-25 -21 -21 -26 -36 -26 -78 -1 -61 15 -92 55 -110 34 -15 34 -22 -1 -38 -58
-25 -77 -136 -31 -180 35 -33 65 -49 91 -49 36 1 92 33 103 58 12 26 33 29 42
5 10 -26 29 -43 47 -43 9 0 16 -4 16 -10 0 -5 18 -10 40 -10 22 0 40 5 40 10
0 6 7 10 16 10 17 0 54 36 54 52 0 17 19 7 52 -26 58 -58 113 -60 170 -5 27
25 32 37 32 78 1 58 -18 97 -56 113 -31 14 -37 28 -12 28 24 0 61 47 69 86 9
48 -4 85 -41 119 l-33 30 33 31 c18 18 36 46 39 63 7 34 -1 91 -13 91 -4 0
-10 9 -13 20 -3 11 -12 20 -21 20 -26 0 -18 27 16 60 27 26 32 38 32 79 1 55
-16 93 -50 112 -25 13 -32 29 -13 29 19 0 57 51 64 86 11 60 -18 118 -68 137
-16 6 -17 9 -3 22 8 8 19 15 24 15 20 0 46 56 46 100 0 48 -26 100 -50 100 -8
0 -14 5 -14 10 0 6 -22 10 -50 10 -27 0 -50 -3 -50 -8 0 -4 -10 -12 -22 -17
-12 -6 -26 -19 -32 -30 -6 -11 -12 -22 -14 -25 -2 -2 -15 9 -30 26 -64 73
-141 74 -201 3 -27 -32 -41 -37 -41 -13 0 32 -55 64 -109 64 -30 0 -47 -8 -77
-35 -34 -31 -38 -40 -38 -84 0 -43 5 -54 36 -85 31 -31 42 -36 85 -36 52 0
103 32 103 64 0 9 3 16 7 16 7 0 96 -91 91 -94 -2 -1 -15 -8 -30 -16 -16 -7
-28 -22 -28 -32 0 -10 -4 -18 -10 -18 -5 0 -10 -20 -10 -45 0 -53 33 -98 90
-121 32 -14 38 -13 78 8 25 12 47 29 50 38 10 26 42 41 42 19 0 -6 14 -24 31
-40 l31 -29 -31 -29 c-17 -16 -31 -36 -31 -45 0 -9 -4 -16 -10 -16 -15 0 -12
-47 5 -80 8 -15 26 -37 40 -48 31 -25 31 -35 1 -55 -26 -18 -56 -69 -56 -98 0
-25 36 -88 63 -110 l22 -17 -28 -24 c-15 -14 -35 -37 -43 -52 -16 -32 -19 -76
-4 -76 6 0 10 -7 10 -15 0 -18 43 -65 60 -65 5 0 10 -4 10 -10 0 -5 -5 -10
-10 -10 -14 0 -54 -40 -63 -63 -6 -15 -9 -16 -20 -5 -7 7 -16 21 -20 31 -3 9
-13 17 -21 17 -8 0 -16 5 -18 12 -3 7 -25 12 -56 12 -47 0 -55 -3 -91 -42 -44
-46 -51 -50 -51 -27 0 19 -44 65 -62 65 -7 0 2 13 20 28 36 31 62 74 62 102 0
33 -29 86 -54 100 -33 17 -33 23 4 51 16 13 30 32 30 42 0 9 5 17 10 17 6 0
10 18 10 40 0 22 -4 40 -10 40 -5 0 -10 7 -10 16 0 34 -52 64 -111 64 -36 0
-47 -6 -82 -41 -41 -44 -41 -44 -68 4 -5 9 -16 17 -24 17 -25 0 -17 30 16 61
27 25 31 37 32 79 1 57 -15 92 -49 111 -25 13 -32 29 -14 29 6 0 22 11 36 26
22 21 26 34 26 84 0 50 -4 63 -26 84 -14 15 -32 26 -40 26 -8 0 -18 5 -21 10
-16 25 -90 -3 -125 -48 l-21 -26 -29 32 c-15 18 -35 32 -44 32 -24 0 -20 8 24
50 37 36 40 42 40 92 0 49 -3 55 -40 87 -43 38 -49 51 -24 51 32 0 64 51 64
103 0 50 -22 97 -46 97 -8 0 -14 5 -14 10 0 6 -25 10 -56 10 -51 0 -59 -3 -91
-35 l-35 -35 -35 35 c-30 30 -42 35 -82 35 -60 0 -97 -17 -115 -54 l-14 -28
-17 29 c-21 36 -57 53 -114 53 -50 0 -101 -32 -101 -64 0 -9 -3 -16 -6 -16 -9
0 -30 24 -37 43 -3 9 -11 17 -17 17 -6 0 -19 7 -28 16 -14 15 -14 17 1 26 42
23 67 63 67 105 0 59 -16 87 -62 112 -49 26 -61 26 -115 -1z m-43 -414 c0 -20
24 -44 44 -44 9 0 16 -4 16 -10 0 -5 18 -10 40 -10 22 0 40 5 40 10 0 6 7 10
16 10 9 0 28 14 43 31 l27 30 42 -40 c62 -59 112 -55 175 12 l27 29 28 -28
c15 -16 37 -35 50 -41 24 -14 92 -18 92 -5 0 4 10 12 23 17 12 6 26 20 32 33
12 26 33 29 42 5 10 -26 29 -43 47 -43 22 0 20 -29 -1 -37 -39 -14 -63 -56
-63 -108 0 -46 4 -53 40 -84 43 -37 49 -51 24 -51 -32 0 -64 -55 -64 -111 0
-36 6 -48 40 -81 l40 -39 -40 -38 c-34 -32 -40 -44 -40 -80 0 -56 32 -111 64
-111 24 0 20 -9 -28 -56 -47 -48 -56 -52 -56 -28 0 32 -55 64 -111 64 -36 0
-48 -6 -82 -41 -41 -44 -41 -44 -68 4 -5 9 -16 17 -24 17 -8 0 -15 5 -15 10 0
14 -81 12 -113 -2 -15 -7 -33 -25 -40 -40 -6 -16 -14 -28 -18 -28 -3 0 -21 18
-40 40 -31 36 -38 40 -84 40 -52 0 -94 -24 -108 -62 -8 -22 -37 -24 -37 -2 0
18 -17 37 -42 47 -25 9 -22 30 5 42 12 6 26 20 32 33 5 12 13 22 17 22 13 0 9
68 -4 92 -7 13 -26 35 -42 50 l-28 28 29 28 c67 62 71 112 12 174 l-40 42 30
27 c17 15 31 34 31 43 0 9 5 16 10 16 6 0 10 18 10 40 0 22 -4 40 -10 40 -5 0
-10 7 -10 16 0 20 -24 44 -44 44 -25 0 -19 26 17 63 34 37 67 47 67 21z m1720
-238 c0 -8 16 -27 35 -42 37 -28 44 -44 20 -44 -8 0 -27 -16 -42 -34 -20 -27
-30 -32 -40 -24 -7 6 -13 15 -13 20 0 15 -27 38 -44 38 -23 0 -21 5 27 54 45
48 57 54 57 32z m-710 -346 c-16 -15 -30 -33 -30 -39 0 -18 -14 -12 -40 17
-14 16 -34 34 -45 40 l-20 12 20 12 c11 6 31 24 44 39 l24 28 39 -40 39 -40
-31 -29z m-1240 -179 c37 -36 39 -40 25 -55 -9 -9 -21 -16 -26 -16 -5 0 -9 -5
-9 -11 0 -6 -7 -17 -15 -25 -13 -13 -19 -11 -50 21 -19 20 -35 41 -35 46 0 8
59 76 67 78 2 1 21 -17 43 -38z m1234 3 c39 -39 46 -64 18 -64 -10 0 -25 -12
-32 -27 -8 -16 -15 -29 -16 -31 -1 -2 -23 17 -50 42 -41 40 -45 46 -28 52 10
4 30 20 43 36 13 15 25 28 26 28 2 0 19 -16 39 -36z m-1014 -214 c0 -5 16 -26
36 -45 20 -20 34 -37 33 -38 -2 -2 -16 -9 -31 -17 -16 -7 -28 -22 -28 -32 0
-28 -25 -21 -65 19 l-37 37 31 27 c17 15 31 34 31 43 0 9 7 16 15 16 8 0 15
-4 15 -10z m808 -84 c-2 -1 -15 -8 -30 -16 -16 -7 -28 -22 -28 -32 0 -28 -25
-21 -65 19 l-37 37 29 25 c16 14 32 35 36 45 7 17 13 14 53 -28 25 -27 44 -49
42 -50z m-2278 -428 c0 -15 27 -38 44 -38 24 0 20 -9 -24 -52 -37 -36 -40 -44
-40 -91 0 -48 4 -55 40 -86 42 -37 49 -51 26 -51 -8 0 -27 -16 -42 -35 -31
-41 -36 -42 -49 -13 -6 12 -25 33 -44 45 -34 23 -91 31 -91 13 0 -5 -7 -10
-16 -10 -9 0 -29 -14 -45 -31 l-29 -31 -27 29 c-16 16 -36 32 -46 36 -16 6
-17 9 -3 22 8 8 19 15 25 15 22 0 41 46 41 99 0 50 -3 57 -41 93 -34 33 -38
39 -22 44 10 4 30 20 45 37 l28 29 28 -28 c35 -37 66 -54 94 -54 38 1 92 33
106 63 11 23 16 26 28 16 8 -6 14 -16 14 -21z m-495 0 c6 -13 20 -27 33 -33
27 -12 30 -45 4 -45 -10 0 -25 -12 -32 -27 -8 -16 -15 -29 -16 -31 -3 -5 -94
84 -94 91 0 4 8 7 18 7 9 0 28 14 41 30 28 36 33 37 46 8z"/>
<path d="M7283 2506 c-35 -19 -63 -48 -63 -63 0 -7 -6 -22 -12 -33 -10 -16
-10 -24 0 -40 6 -11 12 -24 12 -30 0 -18 43 -54 78 -67 83 -30 179 66 149 150
-16 42 -43 69 -88 85 -42 14 -47 14 -76 -2z"/>
<path d="M844 2988 c-54 -26 -67 -136 -23 -180 62 -62 111 -64 171 -7 l42 40
27 -30 c15 -17 34 -31 43 -31 9 0 16 -4 16 -10 0 -5 18 -10 40 -10 22 0 40 3
40 8 0 4 12 13 28 19 33 15 52 54 52 106 0 31 -7 46 -34 73 -31 31 -40 34 -90
34 -31 0 -56 -4 -56 -10 0 -5 -7 -10 -15 -10 -9 0 -19 -8 -22 -17 -7 -19 -28
-43 -37 -43 -3 0 -6 7 -6 16 0 9 -12 27 -27 40 -22 19 -39 24 -78 23 -27 0
-60 -5 -71 -11z"/>
<path d="M1585 2988 c-40 -23 -47 -38 -47 -98 0 -49 4 -63 24 -83 61 -61 110
-63 170 -6 l42 40 27 -30 c15 -17 34 -31 43 -31 9 0 16 -4 16 -10 0 -5 18 -10
40 -10 22 0 40 5 40 10 0 6 7 10 16 10 34 0 64 52 64 110 0 34 -6 48 -34 76
-31 31 -40 34 -90 34 -31 0 -56 -4 -56 -10 0 -5 -6 -10 -14 -10 -7 0 -21 -11
-30 -25 -17 -26 -36 -33 -36 -14 0 7 -12 22 -27 35 -22 19 -40 24 -78 24 -27
0 -59 -6 -70 -12z"/>
<path d="M2323 2988 c-12 -6 -31 -30 -42 -53 -17 -37 -18 -48 -8 -76 21 -58
72 -99 123 -99 35 0 89 41 110 85 14 29 14 39 2 72 -20 59 -53 83 -113 82 -27
0 -60 -5 -72 -11z"/>
<path d="M3064 2988 c-31 -15 -48 -52 -48 -108 0 -44 4 -52 37 -83 l37 -34
-40 -41 -40 -41 -41 40 c-33 32 -47 39 -80 39 -54 0 -109 -32 -109 -64 0 -9
-4 -16 -10 -16 -5 0 -10 -18 -10 -40 0 -22 5 -40 10 -40 6 0 10 -7 10 -16 0
-9 14 -28 31 -43 l30 -27 -40 -42 c-59 -62 -55 -112 12 -174 l29 -28 -28 -28
c-37 -36 -54 -66 -54 -96 0 -33 37 -94 61 -101 10 -4 19 -11 19 -16 0 -13 67
-11 92 2 49 26 68 56 68 107 0 61 -17 99 -52 115 -31 13 -37 27 -12 27 36 0
64 52 64 120 0 41 -5 56 -25 75 -13 14 -31 25 -40 25 -8 0 -15 3 -15 6 0 10
28 34 40 34 6 0 14 8 17 18 4 9 13 23 21 31 12 13 16 12 25 -4 23 -43 59 -65
103 -65 55 0 88 15 105 49 7 14 14 28 16 30 1 2 20 -15 42 -38 36 -38 44 -41
91 -41 47 0 55 3 86 37 28 31 34 45 34 82 0 69 -52 121 -120 121 -39 0 -68
-15 -99 -51 -13 -16 -27 -29 -30 -29 -3 0 -12 14 -19 30 -8 18 -21 30 -33 30
-27 0 -24 28 6 52 14 11 32 33 40 48 17 33 20 80 5 80 -5 0 -10 7 -10 15 0 9
-11 27 -25 40 -20 21 -34 25 -77 24 -29 0 -63 -5 -74 -11z"/>
<path d="M5025 2976 c-59 -66 -60 -109 -5 -167 42 -44 51 -69 24 -69 -20 0
-44 -24 -44 -44 0 -9 -4 -16 -10 -16 -5 0 -10 -18 -10 -40 0 -22 5 -40 10 -40
6 0 10 -7 10 -16 0 -18 16 -36 47 -52 27 -15 113 -16 113 -2 0 6 6 10 14 10
24 0 46 47 46 100 0 53 -22 100 -46 100 -28 0 -24 23 10 55 34 31 36 37 36 91
-1 85 -32 114 -122 113 -42 0 -57 -5 -73 -23z"/>
<path d="M6014 2725 c-34 -31 -38 -40 -38 -84 0 -43 5 -54 36 -85 30 -30 43
-36 78 -36 58 0 110 30 110 64 0 9 5 16 10 16 18 0 11 57 -12 99 -13 25 -29
41 -40 41 -10 0 -18 5 -18 10 0 6 -20 10 -44 10 -36 0 -50 -6 -82 -35z"/>
<path d="M1580 2511 c-14 -5 -51 -9 -82 -10 -31 -1 -60 -5 -63 -11 -3 -5 -17
-10 -30 -10 -13 0 -27 -4 -30 -10 -3 -5 -17 -10 -31 -10 -13 0 -24 -4 -24 -10
0 -5 -9 -10 -20 -10 -11 0 -20 -4 -20 -10 0 -5 -9 -10 -20 -10 -11 0 -20 -4
-20 -10 0 -5 -9 -10 -20 -10 -11 0 -20 -4 -20 -8 0 -5 -12 -15 -27 -23 -62
-32 -198 -168 -241 -241 -9 -16 -20 -28 -24 -28 -4 0 -8 -9 -8 -20 0 -11 -4
-20 -10 -20 -5 0 -10 -9 -10 -20 0 -11 -4 -20 -10 -20 -5 0 -10 -9 -10 -19 0
-11 -4 -23 -10 -26 -5 -3 -10 -17 -10 -31 0 -13 -4 -24 -10 -24 -5 0 -10 -18
-10 -39 0 -22 -4 -42 -9 -45 -15 -10 -22 -215 -11 -296 6 -41 13 -94 17 -117
3 -24 9 -43 14 -43 5 0 9 -7 9 -16 0 -22 80 -184 91 -184 5 0 9 -7 9 -15 0
-19 206 -225 225 -225 8 0 15 -4 15 -9 0 -11 162 -91 183 -91 9 0 18 -4 21 -9
6 -9 16 -11 156 -31 81 -11 286 -4 296 11 3 5 21 9 40 9 19 0 43 4 54 10 11 5
29 14 40 20 11 6 27 10 35 10 8 0 15 5 15 10 0 6 9 10 20 10 11 0 20 5 20 10
0 6 9 10 20 10 11 0 20 4 20 8 0 5 12 15 27 23 61 32 211 182 242 242 8 15 18
27 23 27 4 0 8 9 8 20 0 11 5 20 10 20 6 0 10 9 10 20 0 11 5 20 10 20 6 0 10
9 10 20 0 11 5 20 10 20 6 0 10 11 10 24 0 14 5 28 10 31 6 3 10 17 10 30 0
13 4 26 9 29 19 12 30 234 17 341 -8 68 -47 205 -58 205 -5 0 -8 6 -8 14 0 17
-42 100 -52 104 -5 2 -8 9 -8 16 0 7 -8 21 -17 32 -10 10 -33 39 -52 64 -19
25 -56 63 -83 85 -27 22 -61 50 -76 62 -15 13 -33 23 -39 23 -7 0 -13 3 -13 8
0 8 -49 32 -67 32 -7 0 -13 5 -13 10 0 6 -9 10 -19 10 -11 0 -21 4 -23 8 -14
34 -334 84 -398 63z m237 -262 c15 -6 39 -16 53 -22 24 -9 84 -39 124 -61 26
-14 158 -146 172 -172 22 -40 52 -100 61 -124 6 -14 16 -38 22 -53 14 -35 15
-313 1 -322 -5 -3 -10 -17 -10 -31 0 -13 -4 -24 -10 -24 -5 0 -10 -7 -10 -16
0 -18 -41 -97 -52 -102 -5 -2 -8 -10 -8 -17 0 -19 -147 -165 -165 -165 -8 0
-15 -4 -15 -10 0 -5 -9 -10 -20 -10 -11 0 -20 -3 -20 -7 0 -9 -49 -33 -67 -33
-7 0 -13 -4 -13 -10 0 -5 -17 -10 -38 -10 -21 0 -43 -5 -49 -11 -19 -19 -315
1 -329 22 -3 5 -14 9 -25 9 -10 0 -19 5 -19 10 0 6 -9 10 -20 10 -11 0 -20 5
-20 10 0 6 -5 10 -11 10 -15 0 -98 59 -134 95 -36 36 -95 119 -95 134 0 6 -4
11 -10 11 -5 0 -10 9 -10 20 0 11 -4 20 -10 20 -5 0 -10 9 -10 19 0 11 -4 22
-9 25 -21 14 -41 310 -22 329 6 6 11 28 11 49 0 21 5 38 10 38 6 0 10 6 10 13
0 18 24 67 33 67 4 0 7 9 7 20 0 11 5 20 10 20 6 0 10 7 10 15 0 18 146 165
165 165 7 0 15 3 17 8 5 11 84 52 102 52 9 0 16 5 16 10 0 6 11 10 24 10 14 0
28 5 31 10 9 14 287 13 322 -1z"/>
<path d="M1533 2007 c-18 -6 -33 -15 -33 -19 0 -4 -8 -8 -18 -8 -10 0 -24 -9
-32 -20 -8 -11 -19 -20 -24 -20 -15 0 -66 -52 -66 -67 0 -7 -4 -13 -8 -13 -14
0 -52 -80 -52 -109 0 -15 -5 -32 -11 -38 -11 -11 -8 -72 7 -158 19 -112 147
-240 259 -259 86 -15 147 -18 158 -7 6 6 23 11 39 11 25 0 80 25 111 50 7 5
27 21 45 36 17 14 32 31 32 38 0 6 9 18 20 26 11 8 20 22 20 32 0 10 3 18 8
18 14 0 32 81 32 150 0 69 -18 150 -32 150 -5 0 -8 9 -8 20 0 11 -4 20 -8 20
-5 0 -15 12 -23 28 -8 15 -23 36 -34 47 -11 11 -32 26 -47 34 -16 8 -28 18
-28 23 0 4 -9 8 -20 8 -11 0 -20 3 -20 8 0 28 -197 42 -267 19z"/>
<path d="M4815 2506 c-35 -13 -48 -23 -63 -53 -15 -27 -16 -113 -2 -113 6 0
10 -7 10 -15 0 -8 8 -19 18 -24 45 -26 45 -27 3 -68 -37 -36 -41 -45 -41 -89
0 -130 167 -171 228 -57 7 12 12 41 12 64 0 36 -6 48 -41 82 -42 41 -42 42 4
68 9 5 17 16 17 24 0 8 5 15 10 15 14 0 12 86 -2 112 -19 33 -30 42 -69 56
-41 14 -44 14 -84 -2z"/>
<path d="M5800 2502 c-40 -20 -80 -74 -80 -109 0 -46 45 -101 99 -120 28 -10
39 -9 75 7 53 26 69 52 68 117 0 42 -5 57 -26 78 -14 14 -32 25 -40 25 -8 0
-18 5 -21 10 -9 14 -35 12 -75 -8z"/>
<path d="M6292 2507 c-20 -7 -37 -22 -45 -39 -6 -15 -15 -28 -19 -28 -5 0 -8
-20 -8 -45 0 -37 6 -52 30 -79 44 -48 86 -58 140 -33 23 11 45 29 48 39 2 10
8 18 13 18 14 0 11 87 -3 112 -19 33 -30 42 -69 56 -40 13 -41 13 -87 -1z"/>
<path d="M4283 2235 c-13 -13 -23 -31 -23 -40 0 -8 -4 -15 -10 -15 -32 0 9
-118 48 -135 12 -5 22 -13 22 -17 0 -5 16 -8 36 -8 114 0 175 136 97 215 -22
21 -34 25 -87 24 -51 0 -65 -4 -83 -24z"/>
<path d="M4553 2007 c-7 -7 -22 -21 -33 -31 -15 -15 -20 -32 -20 -77 0 -53 3
-61 35 -92 36 -35 42 -47 25 -47 -6 0 -22 -11 -35 -25 -21 -20 -25 -34 -25
-82 0 -47 5 -63 25 -86 21 -26 30 -29 84 -29 50 0 64 4 83 24 62 65 64 110 7
170 l-40 42 30 27 c17 15 31 34 31 43 0 9 5 16 10 16 6 0 10 18 10 40 0 22 -4
40 -10 40 -5 0 -10 7 -10 16 0 48 -130 88 -167 51z"/>
<path d="M2851 1523 c-25 -5 -58 -34 -78 -71 -29 -50 -1 -125 58 -154 57 -29
93 -21 146 29 41 39 27 158 -22 182 -27 13 -75 20 -104 14z"/>
<path d="M6556 1522 c-32 -4 -76 -43 -76 -67 0 -8 -4 -15 -10 -15 -19 0 -10
-53 15 -97 14 -23 32 -43 40 -43 8 0 15 -9 15 -20 0 -13 -7 -20 -19 -20 -33 0
-78 -118 -51 -135 6 -3 10 -13 10 -21 0 -17 15 -33 48 -51 26 -15 112 -17 112
-3 0 6 7 10 15 10 8 0 19 8 24 18 26 45 28 46 45 29 9 -8 16 -21 16 -27 0 -6
8 -14 18 -17 18 -7 42 -28 42 -37 0 -3 -7 -6 -16 -6 -32 0 -64 -51 -64 -102 0
-88 35 -124 120 -122 37 0 53 6 72 25 62 62 64 111 8 170 -39 41 -49 59 -32
59 16 0 52 37 52 54 0 9 5 16 10 16 6 0 10 18 10 40 0 22 -3 40 -8 40 -4 0
-13 12 -19 28 -15 33 -54 52 -107 52 -33 0 -45 -6 -77 -40 l-38 -40 -46 45
c-38 39 -42 47 -28 52 42 16 67 54 67 103 2 91 -52 136 -148 122z"/>
<path d="M3791 1244 c-30 -31 -35 -43 -35 -83 0 -49 26 -101 50 -101 8 0 14
-4 14 -10 0 -14 86 -12 112 3 34 19 48 34 48 51 0 9 5 16 10 16 6 0 10 18 10
40 0 22 -4 40 -10 40 -5 0 -10 7 -10 14 0 29 -64 66 -111 66 -37 -1 -49 -6
-78 -36z"/>
<path d="M7493 1245 c-29 -29 -33 -40 -33 -84 0 -54 22 -101 46 -101 8 0 14
-4 14 -10 0 -14 86 -12 112 3 28 15 40 27 56 55 14 26 16 92 2 92 -5 0 -10 7
-10 16 0 33 -55 64 -112 64 -35 -1 -49 -7 -75 -35z"/>
<path d="M8020 1272 c0 -4 -10 -12 -22 -17 -13 -6 -27 -20 -33 -32 -5 -13 -13
-23 -17 -23 -5 0 -8 -18 -8 -40 0 -22 5 -40 10 -40 6 0 10 -7 10 -16 0 -18 23
-44 40 -44 27 0 19 -31 -16 -66 l-37 -38 -17 22 c-21 26 -84 62 -109 62 -30 0
-79 -29 -101 -60 -21 -30 -29 -120 -10 -120 6 0 10 -6 10 -14 0 -16 35 -40 72
-49 43 -11 88 4 122 39 l31 33 30 -33 c34 -37 71 -50 119 -41 39 8 86 45 86
69 0 25 14 19 28 -12 16 -38 52 -56 111 -56 35 0 54 6 70 21 29 27 51 69 51
97 0 31 -35 84 -72 106 -35 21 -88 27 -88 10 0 -5 -7 -10 -15 -10 -18 0 -65
-43 -65 -60 0 -5 -4 -10 -10 -10 -5 0 -10 5 -10 10 0 15 -46 60 -61 60 -6 0
-8 7 -5 16 3 9 6 18 6 20 0 2 7 4 15 4 26 0 49 49 48 103 -1 44 -5 54 -36 84
-30 27 -43 33 -81 33 -25 0 -46 -3 -46 -8z"/>
<path d="M3328 1024 c-43 -23 -68 -66 -68 -118 0 -25 5 -46 10 -46 6 0 10 -6
10 -14 0 -24 52 -50 100 -50 48 0 100 26 100 50 0 8 2 14 4 14 2 0 11 3 20 6
9 3 16 1 16 -5 0 -7 12 -24 26 -38 21 -21 37 -27 74 -27 86 -2 124 37 123 124
-1 38 -6 54 -26 74 -15 14 -33 26 -42 26 -8 0 -15 5 -15 10 0 15 -47 12 -80
-5 -15 -8 -37 -26 -48 -40 -24 -31 -44 -32 -57 -3 -12 27 -62 57 -95 56 -14 0
-37 -7 -52 -14z"/>
<path d="M6060 1030 c0 -5 -7 -10 -15 -10 -9 0 -27 -12 -42 -26 -20 -20 -25
-36 -26 -74 -1 -87 37 -126 123 -124 37 0 53 6 74 27 14 14 26 31 26 38 0 6 7
8 16 5 9 -3 18 -6 20 -6 2 0 4 -6 4 -14 0 -24 52 -50 100 -50 48 0 100 26 100
50 0 8 5 14 10 14 19 0 11 90 -10 120 -22 30 -71 60 -100 60 -28 0 -80 -30
-97 -56 -20 -30 -30 -30 -55 1 -11 14 -33 32 -48 40 -33 17 -80 20 -80 5z"/>
<path d="M8766 1027 c-27 -16 -58 -49 -73 -75 -15 -26 -17 -72 -3 -72 6 0 10
-7 10 -15 0 -9 12 -28 27 -43 23 -23 35 -27 84 -26 48 1 61 5 84 28 23 23 27
36 28 85 1 50 -2 61 -25 84 -15 15 -34 27 -43 27 -8 0 -15 5 -15 10 0 14 -51
12 -74 -3z"/>
</g>
</svg>
